<?xml version="1.0" encoding="utf-8"?>
<!-- Generator: Adobe Illustrator 18.1.0, SVG Export Plug-In . SVG Version: 6.00 Build 0)  -->
<!DOCTYPE svg PUBLIC "-//W3C//DTD SVG 1.1//EN" "http://www.w3.org/Graphics/SVG/1.1/DTD/svg11.dtd">
<svg version="1.1" xmlns="http://www.w3.org/2000/svg" xmlns:xlink="http://www.w3.org/1999/xlink" x="0px" y="0px"
	 viewBox="0 0 100 100" style="enable-background:new 0 0 100 100;" xml:space="preserve">
<style type="text/css">
	.st0{display:none;fill:#FFFFFF;stroke:#C6C6C6;stroke-width:0.5;stroke-miterlimit:10;}
	.st1{display:none;fill:#FFE168;stroke:#F9B233;stroke-width:0.5;stroke-miterlimit:10;}
	.st2{clip-path:url(#SVGID_2_);fill:#FEF4E8;}
	.st3{clip-path:url(#SVGID_2_);fill:#B5D184;}
	.st4{clip-path:url(#SVGID_2_);fill:#FFE4C7;}
	.st5{clip-path:url(#SVGID_2_);fill:#FFFFFF;stroke:#DADADA;stroke-width:0.5;stroke-miterlimit:10;}
	.st6{clip-path:url(#SVGID_2_);}
	.st7{fill:none;stroke:#9E9198;stroke-miterlimit:10;}
	.st8{clip-path:url(#SVGID_2_);fill:#FFE23B;stroke:#FDC010;stroke-miterlimit:10;}
	.st9{clip-path:url(#SVGID_2_);fill:#FFFFFF;stroke:#C6C6C6;stroke-width:0.5;stroke-miterlimit:10;}
	.st10{fill:#E84738;}
	.st11{fill:none;}
	.st12{fill:#D7ECF1;}
	.st13{display:none;clip-path:url(#SVGID_4_);}
	.st14{display:inline;fill:#CEBFA5;}
	.st15{display:inline;fill:#EFE5DF;}
	.st16{display:inline;fill:#DBCCAF;}
	.st17{display:inline;}
	.st18{fill:none;stroke:#BAA890;stroke-width:0.5;stroke-linecap:round;stroke-miterlimit:10;}
	.st19{clip-path:url(#SVGID_6_);}
	.st20{fill:#FFE4C7;}
	.st21{fill:#EFD5BB;}
	.st22{fill:#FFFFFF;}
	.st23{fill:#374654;}
	.st24{opacity:0.1;fill:#FFFFFF;}
	.st25{fill:#FDC010;}
	.st26{fill:#246CD3;}
	.st27{fill:#FFCE00;}
	.st28{fill:#0023A0;}
	.st29{fill:#FFE4C7;stroke:#EFD5BB;stroke-linecap:round;stroke-miterlimit:10;}
	.st30{clip-path:url(#SVGID_8_);fill:#D7ECF1;}
	.st31{clip-path:url(#SVGID_8_);fill:#92AC64;}
	.st32{clip-path:url(#SVGID_8_);fill:#B5D184;}
	.st33{clip-path:url(#SVGID_8_);}
	.st34{fill:#EDEDED;}
	.st35{fill:#DADADA;}
	.st36{fill:#C6C6C6;}
	.st37{fill:#575756;}
	.st38{fill:#F6F6F6;}
	.st39{fill:#126AD9;}
	.st40{fill:#D8DBDF;}
	.st41{clip-path:url(#SVGID_10_);fill:#818385;}
	.st42{clip-path:url(#SVGID_10_);fill:#F8F8F9;}
	.st43{clip-path:url(#SVGID_12_);fill:#818385;}
	.st44{clip-path:url(#SVGID_12_);fill:#F8F8F9;}
	.st45{clip-path:url(#SVGID_14_);fill:#818385;}
	.st46{clip-path:url(#SVGID_14_);fill:#F8F8F9;}
	.st47{clip-path:url(#SVGID_16_);fill:#818385;}
	.st48{clip-path:url(#SVGID_16_);fill:#F8F8F9;}
	.st49{clip-path:url(#SVGID_18_);fill:#818385;}
	.st50{clip-path:url(#SVGID_18_);fill:#F8F8F9;}
	.st51{clip-path:url(#SVGID_20_);fill:#818385;}
	.st52{clip-path:url(#SVGID_20_);fill:#F8F8F9;}
	.st53{clip-path:url(#SVGID_22_);fill:#818385;}
	.st54{clip-path:url(#SVGID_22_);fill:#F8F8F9;}
	.st55{clip-path:url(#SVGID_24_);fill:#818385;}
	.st56{clip-path:url(#SVGID_24_);fill:#F8F8F9;}
	.st57{clip-path:url(#SVGID_26_);fill:#818385;}
	.st58{clip-path:url(#SVGID_26_);fill:#F8F8F9;}
	.st59{clip-path:url(#SVGID_28_);fill:#818385;}
	.st60{clip-path:url(#SVGID_28_);fill:#F8F8F9;}
	.st61{clip-path:url(#SVGID_30_);fill:#818385;}
	.st62{clip-path:url(#SVGID_30_);fill:#F8F8F9;}
	.st63{clip-path:url(#SVGID_32_);fill:#818385;}
	.st64{clip-path:url(#SVGID_32_);fill:#F8F8F9;}
	.st65{clip-path:url(#SVGID_34_);fill:#818385;}
	.st66{clip-path:url(#SVGID_34_);fill:#F8F8F9;}
	.st67{clip-path:url(#SVGID_36_);fill:#818385;}
	.st68{clip-path:url(#SVGID_36_);fill:#F8F8F9;}
	.st69{clip-path:url(#SVGID_38_);fill:#818385;}
	.st70{clip-path:url(#SVGID_38_);fill:#F8F8F9;}
	.st71{clip-path:url(#SVGID_40_);fill:#818385;}
	.st72{clip-path:url(#SVGID_40_);fill:#F8F8F9;}
	.st73{clip-path:url(#SVGID_42_);fill:#818385;}
	.st74{clip-path:url(#SVGID_42_);fill:#F8F8F9;}
	.st75{clip-path:url(#SVGID_44_);fill:#818385;}
	.st76{clip-path:url(#SVGID_44_);fill:#F8F8F9;}
	.st77{clip-path:url(#SVGID_46_);fill:#818385;}
	.st78{clip-path:url(#SVGID_46_);fill:#F8F8F9;}
	.st79{clip-path:url(#SVGID_48_);fill:#818385;}
	.st80{clip-path:url(#SVGID_48_);fill:#F8F8F9;}
	.st81{clip-path:url(#SVGID_50_);fill:#818385;}
	.st82{clip-path:url(#SVGID_50_);fill:#F8F8F9;}
	.st83{clip-path:url(#SVGID_52_);fill:#818385;}
	.st84{clip-path:url(#SVGID_52_);fill:#F8F8F9;}
	.st85{clip-path:url(#SVGID_54_);fill:#818385;}
	.st86{clip-path:url(#SVGID_54_);fill:#F8F8F9;}
	.st87{clip-path:url(#SVGID_56_);fill:#818385;}
	.st88{clip-path:url(#SVGID_56_);fill:#F8F8F9;}
	.st89{clip-path:url(#SVGID_58_);fill:#818385;}
	.st90{clip-path:url(#SVGID_58_);fill:#F8F8F9;}
	.st91{clip-path:url(#SVGID_60_);fill:#818385;}
	.st92{clip-path:url(#SVGID_60_);fill:#F8F8F9;}
	.st93{fill:#818385;}
	.st94{fill:#C7CACD;}
	.st95{fill:#C0C2C6;}
	.st96{fill:#F8F8F9;}
	.st97{fill:none;stroke:#000000;stroke-width:0.2;stroke-miterlimit:10;}
	.st98{opacity:0.1;}
	.st99{fill:#B99966;}
	.st100{fill:#9D7543;}
	.st101{fill:#B5D184;}
	.st102{display:none;fill:#92AC64;}
	.st103{fill:#E0DE71;}
	.st104{fill:#FFE23B;}
	.st105{fill:#9E9198;}
	.st106{fill:#92AC64;}
	.st107{fill:#6B6785;}
	.st108{fill:#B5675D;}
	.st109{fill:#EF8778;}
	.st110{fill:#FEF4E8;}
</style>
<g id="Layer_1">
</g>
<g id="Layer_2">
</g>
<g id="Layer_3">
	<g>
		<defs>
			<circle id="SVGID_7_" cx="50" cy="50" r="50"/>
		</defs>
		<clipPath id="SVGID_2_">
			<use xlink:href="#SVGID_7_"  style="overflow:visible;"/>
		</clipPath>
		<rect style="clip-path:url(#SVGID_2_);fill:#D7ECF1;" width="100" height="73.4"/>
		<ellipse style="clip-path:url(#SVGID_2_);fill:#92AC64;" cx="44.4" cy="68.9" rx="39.5" ry="14.9"/>
		<ellipse class="st3" cx="90.1" cy="73.2" rx="39.5" ry="14.9"/>
		<g class="st6">
			<rect y="73.3" class="st34" width="100" height="58.5"/>
			<rect y="73.3" class="st35" width="100" height="2"/>
			<rect y="75.3" class="st36" width="100" height="1"/>
		</g>
		<g class="st6">
			<g>
				<path class="st37" d="M38.7,127.3H8.1c-4.5,0-8.1-3.6-8.1-8.1V35.4c0-4.5,3.6-8.1,8.1-8.1h30.6c4.5,0,8.1,3.6,8.1,8.1v83.9
					C46.8,123.7,43.2,127.3,38.7,127.3z"/>
				<rect x="3.2" y="41.8" class="st38" width="40.3" height="71"/>
				<path class="st38" d="M29.8,36.2h-9.7c-0.4,0-0.8-0.4-0.8-0.8v0c0-0.4,0.4-0.8,0.8-0.8h9.7c0.4,0,0.8,0.4,0.8,0.8v0
					C30.6,35.8,30.3,36.2,29.8,36.2z"/>
				<path class="st38" d="M16.9,36.2L16.9,36.2c-0.5,0-0.8-0.4-0.8-0.8v0c0-0.4,0.4-0.8,0.8-0.8h0c0.4,0,0.8,0.4,0.8,0.8v0
					C17.7,35.8,17.4,36.2,16.9,36.2z"/>
				<rect x="3.2" y="41.8" class="st22" width="40.3" height="10"/>
				<g>
					<g>
						<g>
							<path class="st10" d="M13.7,46.5c0.5,0.2,0.7,0.5,0.7,0.9c0,0.6-0.5,1-1.3,1c-0.4,0-0.7-0.1-0.9-0.2v-0.8
								c0.1,0,0.3-0.1,0.4-0.1c0,0.1,0.1,0.2,0.1,0.4c0.1,0,0.2,0,0.3,0c0.3,0,0.5-0.1,0.5-0.3c0-0.1-0.1-0.2-0.3-0.3L12.7,47
								c-0.3-0.2-0.5-0.4-0.5-0.8c0-0.5,0.5-1,1.3-1c0.4,0,0.7,0.1,0.7,0.1v0.5v0.3c-0.1,0-0.3,0.1-0.4,0.1c0-0.1-0.1-0.2-0.1-0.3
								c-0.1,0-0.1,0-0.2,0c-0.3,0-0.5,0.1-0.5,0.3c0,0.1,0.1,0.2,0.3,0.3L13.7,46.5z"/>
							<path class="st10" d="M16.6,47.7c0.1,0,0.2,0,0.3,0c0,0.1,0.1,0.3,0.1,0.4c-0.3,0-0.5,0.1-0.8,0.3H16
								c-0.1-0.1-0.1-0.2-0.1-0.4c-0.1,0.2-0.4,0.4-0.6,0.4c-0.3,0-0.5-0.2-0.5-0.6c0-0.5,0.4-0.7,1.1-0.9l0.1,0
								c0-0.2-0.2-0.3-0.3-0.3c-0.1,0-0.2,0-0.3,0.1c0,0.1-0.1,0.2-0.1,0.3c-0.1,0-0.3,0-0.4-0.1v-0.6c0,0,0.3-0.2,0.8-0.2
								c0.7,0,1,0.3,1,0.9L16.6,47.7L16.6,47.7z M15.8,47.4c-0.2,0-0.3,0.1-0.3,0.3c0,0.1,0.1,0.2,0.2,0.2
								C15.7,47.8,15.8,47.7,15.8,47.4L15.8,47.4L15.8,47.4z"/>
							<path class="st10" d="M19.4,46.1c0,0.1,0.1,0.3,0.1,0.4c-0.1,0-0.1,0-0.2,0c0,0.1-0.1,0.4-0.3,0.7l-0.4,1
								c-0.3,0.1-0.5,0.1-0.8,0l-0.5-1.3c-0.1-0.2-0.1-0.4-0.1-0.5c-0.1,0-0.1,0-0.2,0c0-0.1,0-0.3,0.1-0.4h0.2c0.2,0,0.4,0,0.6,0
								l0.3,1c0,0.1,0.1,0.4,0.1,0.6c0.1-0.4,0.2-0.7,0.4-1c-0.1-0.1-0.2-0.1-0.4-0.1c0-0.1,0-0.3,0.1-0.4L19.4,46.1z"/>
							<path class="st10" d="M20.4,47.4c0.1,0.3,0.3,0.5,0.5,0.5c0.3,0,0.5-0.2,0.5-0.2c0.1,0.1,0.1,0.2,0.1,0.4
								c0,0-0.3,0.4-0.9,0.4c-0.6,0-1-0.4-1-1.1c0-0.7,0.4-1.2,1.1-1.2c0.6,0,1,0.3,0.9,1.2L20.4,47.4z M20.9,46.9
								c0-0.2-0.1-0.3-0.2-0.3s-0.3,0.1-0.3,0.4L20.9,46.9z"/>
							<path class="st10" d="M21.8,47.5V47h1.3v0.5H21.8z"/>
							<path class="st10" d="M25.1,45.2c0.9,0,1.5,0.6,1.5,1.6c0,1-0.7,1.7-1.7,1.7c-0.9,0-1.5-0.6-1.5-1.6
								C23.4,45.9,24.1,45.2,25.1,45.2L25.1,45.2z M24.3,46.8c0,0.6,0.3,1,0.7,1c0.4,0,0.7-0.4,0.7-1c0-0.6-0.3-0.9-0.7-0.9
								S24.3,46.2,24.3,46.8z"/>
						</g>
						<g>
							<g>
								<path class="st10" d="M10.8,45.6c0-0.1,0-0.1-0.1-0.2c0,0,0,0,0,0c-0.1-0.4-0.3-0.8-0.7-1c-0.1-0.1-0.3-0.1-0.5-0.1
									c0,0,0,0,0,0c0,0,0,0,0,0c0,0,0,0,0,0c0,0,0,0,0,0c0,0,0,0,0,0v-0.1c0-0.2-0.2-0.4-0.4-0.4H6.5c-0.2,0-0.4,0.2-0.4,0.4v5.1
									c0,0.2,0.2,0.4,0.4,0.4H9c0.2,0,0.4-0.2,0.4-0.4v-2.2c0,0,0,0,0.1,0c0,0,0,0,0,0l0,0c0,0,0,0,0,0l0,0
									c0.1,0.1,0.1,0.2,0.1,0.3v1.3c0,0.3,0.2,0.6,0.5,0.6c0.3,0,0.5-0.2,0.5-0.6v-2.9L10.8,45.6C10.8,45.6,10.8,45.6,10.8,45.6z
									 M7.4,44.2L7.4,44.2h0.3h0.1h0h0.1h0.2v0c0.1,0,0.1,0.1,0.1,0.1c0,0.1-0.1,0.1-0.1,0.1h0H7.9H7.8h0H7.7H7.4v0
									c-0.1,0-0.1-0.1-0.1-0.1C7.3,44.2,7.4,44.2,7.4,44.2z M7.8,49.6c-0.2,0-0.3-0.1-0.3-0.3c0-0.2,0.1-0.3,0.3-0.3
									c0.2,0,0.3,0.1,0.3,0.3C8.1,49.5,7.9,49.6,7.8,49.6z M9,48.6C9,48.6,9,48.6,9,48.6c0,0.1-0.1,0.2-0.2,0.2v0h-2v0
									c-0.1,0-0.2-0.1-0.2-0.2h0V45h0c0-0.1,0.1-0.2,0.2-0.2c0,0,0,0,0,0c0,0,0,0,0,0h1.9c0,0,0,0,0,0c0,0,0,0,0,0
									C8.9,44.8,9,44.9,9,45c0,0,0,0,0,0c0,0,0,0,0,0L9,48.6C9,48.6,9,48.6,9,48.6z M10.4,45.9v2.8c0,0.1-0.1,0.2-0.2,0.2
									c-0.1,0-0.2-0.1-0.2-0.2v-1.3c0-0.4-0.2-0.6-0.6-0.7h0c0,0,0,0,0,0c0,0,0,0,0,0v-2.1c0,0,0,0,0.1,0c0,0,0,0,0,0c0,0,0,0,0,0
									v0c0.1,0,0.2,0,0.3,0.1c0,0,0,0,0,0c0,0,0,0,0,0c0.1,0,0.1,0.1,0.1,0.2c0,0,0,0,0,0c0,0,0,0,0,0l-0.1,0.3
									c0,0.2,0.1,0.4,0.3,0.5l0.1,0c0,0,0,0,0,0C10.4,45.7,10.4,45.8,10.4,45.9C10.4,45.9,10.4,45.9,10.4,45.9
									C10.4,45.9,10.4,45.9,10.4,45.9z"/>
							</g>
						</g>
					</g>
				</g>
				<rect x="3.2" y="51.8" class="st39" width="40.3" height="60.9"/>
			</g>
			<g>
				<rect x="3.2" y="85.5" class="st40" width="40.5" height="27.2"/>
				<g>
					<defs>
						<rect id="SVGID_9_" x="3.8" y="86.8" width="3.3" height="4.9"/>
					</defs>
					<clipPath id="SVGID_4_">
						<use xlink:href="#SVGID_9_"  style="overflow:visible;"/>
					</clipPath>
					<path style="clip-path:url(#SVGID_4_);fill:#818385;" d="M7,91.2c0,0.3-0.3,0.6-0.6,0.6H4.3c-0.3,0-0.6-0.3-0.6-0.6v-3.7
						c0-0.3,0.3-0.6,0.6-0.6h2.1c0.3,0,0.6,0.3,0.6,0.6V91.2z"/>
					<path style="clip-path:url(#SVGID_4_);fill:#F8F8F9;" d="M7,91.1c0,0.3-0.3,0.6-0.6,0.6H4.3c-0.3,0-0.6-0.3-0.6-0.6v-3.7
						c0-0.3,0.3-0.6,0.6-0.6h2.1c0.3,0,0.6,0.3,0.6,0.6V91.1z"/>
				</g>
				<g>
					<defs>
						<rect id="SVGID_11_" x="7.8" y="86.8" width="3.3" height="4.9"/>
					</defs>
					<clipPath id="SVGID_6_">
						<use xlink:href="#SVGID_11_"  style="overflow:visible;"/>
					</clipPath>
					<path style="clip-path:url(#SVGID_6_);fill:#818385;" d="M11.1,91.2c0,0.3-0.3,0.6-0.6,0.6H8.4c-0.3,0-0.6-0.3-0.6-0.6v-3.7
						c0-0.3,0.3-0.6,0.6-0.6h2.1c0.3,0,0.6,0.3,0.6,0.6V91.2z"/>
					<path style="clip-path:url(#SVGID_6_);fill:#F8F8F9;" d="M11.1,91.1c0,0.3-0.3,0.6-0.6,0.6H8.4c-0.3,0-0.6-0.3-0.6-0.6v-3.7
						c0-0.3,0.3-0.6,0.6-0.6h2.1c0.3,0,0.6,0.3,0.6,0.6V91.1z"/>
				</g>
				<g>
					<defs>
						<rect id="SVGID_13_" x="11.8" y="86.8" width="3.3" height="4.9"/>
					</defs>
					<clipPath id="SVGID_8_">
						<use xlink:href="#SVGID_13_"  style="overflow:visible;"/>
					</clipPath>
					<path style="clip-path:url(#SVGID_8_);fill:#818385;" d="M15.1,91.2c0,0.3-0.3,0.6-0.6,0.6h-2.1c-0.3,0-0.6-0.3-0.6-0.6v-3.7
						c0-0.3,0.3-0.6,0.6-0.6h2.1c0.3,0,0.6,0.3,0.6,0.6V91.2z"/>
					<path style="clip-path:url(#SVGID_8_);fill:#F8F8F9;" d="M15.1,91.1c0,0.3-0.3,0.6-0.6,0.6h-2.1c-0.3,0-0.6-0.3-0.6-0.6v-3.7
						c0-0.3,0.3-0.6,0.6-0.6h2.1c0.3,0,0.6,0.3,0.6,0.6V91.1z"/>
				</g>
				<g>
					<defs>
						<rect id="SVGID_15_" x="15.8" y="86.8" width="3.3" height="4.9"/>
					</defs>
					<clipPath id="SVGID_10_">
						<use xlink:href="#SVGID_15_"  style="overflow:visible;"/>
					</clipPath>
					<path class="st41" d="M19.1,91.2c0,0.3-0.3,0.6-0.6,0.6h-2.1c-0.3,0-0.6-0.3-0.6-0.6v-3.7c0-0.3,0.3-0.6,0.6-0.6h2.1
						c0.3,0,0.6,0.3,0.6,0.6V91.2z"/>
					<path class="st42" d="M19.1,91.1c0,0.3-0.3,0.6-0.6,0.6h-2.1c-0.3,0-0.6-0.3-0.6-0.6v-3.7c0-0.3,0.3-0.6,0.6-0.6h2.1
						c0.3,0,0.6,0.3,0.6,0.6V91.1z"/>
				</g>
				<g>
					<defs>
						<rect id="SVGID_17_" x="19.9" y="86.8" width="3.3" height="4.9"/>
					</defs>
					<clipPath id="SVGID_12_">
						<use xlink:href="#SVGID_17_"  style="overflow:visible;"/>
					</clipPath>
					<path class="st43" d="M23.1,91.2c0,0.3-0.3,0.6-0.6,0.6h-2.1c-0.3,0-0.6-0.3-0.6-0.6v-3.7c0-0.3,0.3-0.6,0.6-0.6h2.1
						c0.3,0,0.6,0.3,0.6,0.6V91.2z"/>
					<path class="st44" d="M23.1,91.1c0,0.3-0.3,0.6-0.6,0.6h-2.1c-0.3,0-0.6-0.3-0.6-0.6v-3.7c0-0.3,0.3-0.6,0.6-0.6h2.1
						c0.3,0,0.6,0.3,0.6,0.6V91.1z"/>
				</g>
				<g>
					<defs>
						<rect id="SVGID_19_" x="23.9" y="86.8" width="3.3" height="4.9"/>
					</defs>
					<clipPath id="SVGID_14_">
						<use xlink:href="#SVGID_19_"  style="overflow:visible;"/>
					</clipPath>
					<path class="st45" d="M27.2,91.2c0,0.3-0.3,0.6-0.6,0.6h-2.1c-0.3,0-0.6-0.3-0.6-0.6v-3.7c0-0.3,0.3-0.6,0.6-0.6h2.1
						c0.3,0,0.6,0.3,0.6,0.6V91.2z"/>
					<path class="st46" d="M27.2,91.1c0,0.3-0.3,0.6-0.6,0.6h-2.1c-0.3,0-0.6-0.3-0.6-0.6v-3.7c0-0.3,0.3-0.6,0.6-0.6h2.1
						c0.3,0,0.6,0.3,0.6,0.6V91.1z"/>
				</g>
				<g>
					<defs>
						<rect id="SVGID_21_" x="27.9" y="86.8" width="3.3" height="4.9"/>
					</defs>
					<clipPath id="SVGID_16_">
						<use xlink:href="#SVGID_21_"  style="overflow:visible;"/>
					</clipPath>
					<path class="st47" d="M31.2,91.2c0,0.3-0.3,0.6-0.6,0.6h-2.1c-0.3,0-0.6-0.3-0.6-0.6v-3.7c0-0.3,0.3-0.6,0.6-0.6h2.1
						c0.3,0,0.6,0.3,0.6,0.6V91.2z"/>
					<path class="st48" d="M31.2,91.1c0,0.3-0.3,0.6-0.6,0.6h-2.1c-0.3,0-0.6-0.3-0.6-0.6v-3.7c0-0.3,0.3-0.6,0.6-0.6h2.1
						c0.3,0,0.6,0.3,0.6,0.6V91.1z"/>
				</g>
				<g>
					<defs>
						<rect id="SVGID_23_" x="32" y="86.8" width="3.3" height="4.9"/>
					</defs>
					<clipPath id="SVGID_18_">
						<use xlink:href="#SVGID_23_"  style="overflow:visible;"/>
					</clipPath>
					<path class="st49" d="M35.2,91.2c0,0.3-0.3,0.6-0.6,0.6h-2.1c-0.3,0-0.6-0.3-0.6-0.6v-3.7c0-0.3,0.3-0.6,0.6-0.6h2.1
						c0.3,0,0.6,0.3,0.6,0.6V91.2z"/>
					<path class="st50" d="M35.2,91.1c0,0.3-0.3,0.6-0.6,0.6h-2.1c-0.3,0-0.6-0.3-0.6-0.6v-3.7c0-0.3,0.3-0.6,0.6-0.6h2.1
						c0.3,0,0.6,0.3,0.6,0.6V91.1z"/>
				</g>
				<g>
					<defs>
						<rect id="SVGID_25_" x="36" y="86.8" width="3.3" height="4.9"/>
					</defs>
					<clipPath id="SVGID_20_">
						<use xlink:href="#SVGID_25_"  style="overflow:visible;"/>
					</clipPath>
					<path class="st51" d="M39.3,91.2c0,0.3-0.3,0.6-0.6,0.6h-2.1c-0.3,0-0.6-0.3-0.6-0.6v-3.7c0-0.3,0.3-0.6,0.6-0.6h2.1
						c0.3,0,0.6,0.3,0.6,0.6V91.2z"/>
					<path class="st52" d="M39.3,91.1c0,0.3-0.3,0.6-0.6,0.6h-2.1c-0.3,0-0.6-0.3-0.6-0.6v-3.7c0-0.3,0.3-0.6,0.6-0.6h2.1
						c0.3,0,0.6,0.3,0.6,0.6V91.1z"/>
				</g>
				<g>
					<defs>
						<rect id="SVGID_27_" x="40" y="86.8" width="3.3" height="4.9"/>
					</defs>
					<clipPath id="SVGID_22_">
						<use xlink:href="#SVGID_27_"  style="overflow:visible;"/>
					</clipPath>
					<path class="st53" d="M43.3,91.2c0,0.3-0.3,0.6-0.6,0.6h-2.1c-0.3,0-0.6-0.3-0.6-0.6v-3.7c0-0.3,0.3-0.6,0.6-0.6h2.1
						c0.3,0,0.6,0.3,0.6,0.6V91.2z"/>
					<path class="st54" d="M43.3,91.1c0,0.3-0.3,0.6-0.6,0.6h-2.1c-0.3,0-0.6-0.3-0.6-0.6v-3.7c0-0.3,0.3-0.6,0.6-0.6h2.1
						c0.3,0,0.6,0.3,0.6,0.6V91.1z"/>
				</g>
				<g>
					<defs>
						<rect id="SVGID_29_" x="5.8" y="93.6" width="3.3" height="4.9"/>
					</defs>
					<clipPath id="SVGID_24_">
						<use xlink:href="#SVGID_29_"  style="overflow:visible;"/>
					</clipPath>
					<path class="st55" d="M9.1,98c0,0.3-0.3,0.6-0.6,0.6H6.3c-0.3,0-0.6-0.3-0.6-0.6v-3.7c0-0.3,0.3-0.6,0.6-0.6h2.1
						c0.3,0,0.6,0.3,0.6,0.6V98z"/>
					<path class="st56" d="M9.1,97.9c0,0.3-0.3,0.6-0.6,0.6H6.3c-0.3,0-0.6-0.3-0.6-0.6v-3.7c0-0.3,0.3-0.6,0.6-0.6h2.1
						c0.3,0,0.6,0.3,0.6,0.6V97.9z"/>
				</g>
				<g>
					<defs>
						<rect id="SVGID_31_" x="9.8" y="93.6" width="3.3" height="4.9"/>
					</defs>
					<clipPath id="SVGID_26_">
						<use xlink:href="#SVGID_31_"  style="overflow:visible;"/>
					</clipPath>
					<path class="st57" d="M13.1,98c0,0.3-0.3,0.6-0.6,0.6h-2.1c-0.3,0-0.6-0.3-0.6-0.6v-3.7c0-0.3,0.3-0.6,0.6-0.6h2.1
						c0.3,0,0.6,0.3,0.6,0.6V98z"/>
					<path class="st58" d="M13.1,97.9c0,0.3-0.3,0.6-0.6,0.6h-2.1c-0.3,0-0.6-0.3-0.6-0.6v-3.7c0-0.3,0.3-0.6,0.6-0.6h2.1
						c0.3,0,0.6,0.3,0.6,0.6V97.9z"/>
				</g>
				<g>
					<defs>
						<rect id="SVGID_33_" x="13.8" y="93.6" width="3.3" height="4.9"/>
					</defs>
					<clipPath id="SVGID_28_">
						<use xlink:href="#SVGID_33_"  style="overflow:visible;"/>
					</clipPath>
					<path class="st59" d="M17.1,98c0,0.3-0.3,0.6-0.6,0.6h-2.1c-0.3,0-0.6-0.3-0.6-0.6v-3.7c0-0.3,0.3-0.6,0.6-0.6h2.1
						c0.3,0,0.6,0.3,0.6,0.6V98z"/>
					<path class="st60" d="M17.1,97.9c0,0.3-0.3,0.6-0.6,0.6h-2.1c-0.3,0-0.6-0.3-0.6-0.6v-3.7c0-0.3,0.3-0.6,0.6-0.6h2.1
						c0.3,0,0.6,0.3,0.6,0.6V97.9z"/>
				</g>
				<g>
					<defs>
						<rect id="SVGID_35_" x="17.9" y="93.6" width="3.3" height="4.9"/>
					</defs>
					<clipPath id="SVGID_30_">
						<use xlink:href="#SVGID_35_"  style="overflow:visible;"/>
					</clipPath>
					<path class="st61" d="M21.1,98c0,0.3-0.3,0.6-0.6,0.6h-2.1c-0.3,0-0.6-0.3-0.6-0.6v-3.7c0-0.3,0.3-0.6,0.6-0.6h2.1
						c0.3,0,0.6,0.3,0.6,0.6V98z"/>
					<path class="st62" d="M21.1,97.9c0,0.3-0.3,0.6-0.6,0.6h-2.1c-0.3,0-0.6-0.3-0.6-0.6v-3.7c0-0.3,0.3-0.6,0.6-0.6h2.1
						c0.3,0,0.6,0.3,0.6,0.6V97.9z"/>
				</g>
				<g>
					<defs>
						<rect id="SVGID_37_" x="21.9" y="93.6" width="3.3" height="4.9"/>
					</defs>
					<clipPath id="SVGID_32_">
						<use xlink:href="#SVGID_37_"  style="overflow:visible;"/>
					</clipPath>
					<path class="st63" d="M25.2,98c0,0.3-0.3,0.6-0.6,0.6h-2.1c-0.3,0-0.6-0.3-0.6-0.6v-3.7c0-0.3,0.3-0.6,0.6-0.6h2.1
						c0.3,0,0.6,0.3,0.6,0.6V98z"/>
					<path class="st64" d="M25.2,97.9c0,0.3-0.3,0.6-0.6,0.6h-2.1c-0.3,0-0.6-0.3-0.6-0.6v-3.7c0-0.3,0.3-0.6,0.6-0.6h2.1
						c0.3,0,0.6,0.3,0.6,0.6V97.9z"/>
				</g>
				<g>
					<defs>
						<rect id="SVGID_39_" x="25.9" y="93.6" width="3.3" height="4.9"/>
					</defs>
					<clipPath id="SVGID_34_">
						<use xlink:href="#SVGID_39_"  style="overflow:visible;"/>
					</clipPath>
					<path class="st65" d="M29.2,98c0,0.3-0.3,0.6-0.6,0.6h-2.1c-0.3,0-0.6-0.3-0.6-0.6v-3.7c0-0.3,0.3-0.6,0.6-0.6h2.1
						c0.3,0,0.6,0.3,0.6,0.6V98z"/>
					<path class="st66" d="M29.2,97.9c0,0.3-0.3,0.6-0.6,0.6h-2.1c-0.3,0-0.6-0.3-0.6-0.6v-3.7c0-0.3,0.3-0.6,0.6-0.6h2.1
						c0.3,0,0.6,0.3,0.6,0.6V97.9z"/>
				</g>
				<g>
					<defs>
						<rect id="SVGID_41_" x="29.9" y="93.6" width="3.3" height="4.9"/>
					</defs>
					<clipPath id="SVGID_36_">
						<use xlink:href="#SVGID_41_"  style="overflow:visible;"/>
					</clipPath>
					<path class="st67" d="M33.2,98c0,0.3-0.3,0.6-0.6,0.6h-2.1c-0.3,0-0.6-0.3-0.6-0.6v-3.7c0-0.3,0.3-0.6,0.6-0.6h2.1
						c0.3,0,0.6,0.3,0.6,0.6V98z"/>
					<path class="st68" d="M33.2,97.9c0,0.3-0.3,0.6-0.6,0.6h-2.1c-0.3,0-0.6-0.3-0.6-0.6v-3.7c0-0.3,0.3-0.6,0.6-0.6h2.1
						c0.3,0,0.6,0.3,0.6,0.6V97.9z"/>
				</g>
				<g>
					<defs>
						<rect id="SVGID_43_" x="34" y="93.6" width="3.3" height="4.9"/>
					</defs>
					<clipPath id="SVGID_38_">
						<use xlink:href="#SVGID_43_"  style="overflow:visible;"/>
					</clipPath>
					<path class="st69" d="M37.2,98c0,0.3-0.3,0.6-0.6,0.6h-2.1c-0.3,0-0.6-0.3-0.6-0.6v-3.7c0-0.3,0.3-0.6,0.6-0.6h2.1
						c0.3,0,0.6,0.3,0.6,0.6V98z"/>
					<path class="st70" d="M37.2,97.9c0,0.3-0.3,0.6-0.6,0.6h-2.1c-0.3,0-0.6-0.3-0.6-0.6v-3.7c0-0.3,0.3-0.6,0.6-0.6h2.1
						c0.3,0,0.6,0.3,0.6,0.6V97.9z"/>
				</g>
				<g>
					<defs>
						<rect id="SVGID_45_" x="38" y="93.6" width="3.3" height="4.9"/>
					</defs>
					<clipPath id="SVGID_40_">
						<use xlink:href="#SVGID_45_"  style="overflow:visible;"/>
					</clipPath>
					<path class="st71" d="M41.3,98c0,0.3-0.3,0.6-0.6,0.6h-2.1c-0.3,0-0.6-0.3-0.6-0.6v-3.7c0-0.3,0.3-0.6,0.6-0.6h2.1
						c0.3,0,0.6,0.3,0.6,0.6V98z"/>
					<path class="st72" d="M41.3,97.9c0,0.3-0.3,0.6-0.6,0.6h-2.1c-0.3,0-0.6-0.3-0.6-0.6v-3.7c0-0.3,0.3-0.6,0.6-0.6h2.1
						c0.3,0,0.6,0.3,0.6,0.6V97.9z"/>
				</g>
			</g>
			<path class="st22" d="M38.4,71.8h-30c-1.1,0-2-0.9-2-2v-5.9c0-1.1,0.9-2,2-2h30c1.1,0,2,0.9,2,2v5.9
				C40.4,70.9,39.5,71.8,38.4,71.8z"/>
			<path class="st35" d="M10.1,64.3c-1,0-1.9,0.8-1.9,1.9S9,68,10.1,68c1,0,1.9-0.8,1.9-1.9S11.1,64.3,10.1,64.3z M10.1,67.7
				c-0.8,0-1.5-0.7-1.5-1.5s0.7-1.5,1.5-1.5c0.8,0,1.5,0.7,1.5,1.5S10.9,67.7,10.1,67.7z M13.1,69.2c0,0-0.1,0.1-0.1,0.1
				s-0.1,0-0.1-0.1l-1.6-1.6c0,0,0,0,0,0c0.1-0.1,0.2-0.2,0.3-0.3c0,0,0,0,0,0l1.6,1.6C13.2,69,13.2,69.2,13.1,69.2z"/>
			<g>
				<path class="st20" d="M58.3,88.6c-1.2,6.4-5.5,11.3-5.5,11.3l-6,0l0-7.3L58.3,88.6z"/>
				<path class="st21" d="M51.9,81.5c-2.4,0-4.5,1.5-6.5,2.7c-1.9,1-3.8,2.1-5.7,3.2c-4.1,2.1-5.1,7.6-1.7,10.9
					c1.6,1.5,4,2.1,6.1,1.6c1.1-0.3,2.1-0.9,3.1-1.5c1-0.5,2-1.1,3-1.7c1.9-1,4-2,5.7-3.2c1.8-1.4,2.8-4.6,2.6-6.8
					C58.2,83.2,55.3,81.5,51.9,81.5z"/>
				<g>
					<path class="st20" d="M51.9,80.5c-2.4,0-4.5,1.5-6.5,2.7c-1.9,1-3.8,2.1-5.7,3.2c-4.1,2.1-5.1,7.6-1.7,10.9
						c1.6,1.5,4,2.1,6.1,1.6c1.1-0.3,2.1-0.9,3.1-1.5c1-0.5,2-1.1,3-1.7c1.9-1,4-2,5.7-3.2c1.8-1.4,2.8-3.6,2.6-5.8
						C58.2,83.2,55.3,80.5,51.9,80.5z"/>
					<path class="st22" d="M46.6,89.8c-2.4-3.7-4.5-2.6-6.6-1.1c-2.1,1.5-2.6,4.5-1.1,6.6s4.5,2.6,6.6,1.1
						C47.7,94.8,49.5,94.1,46.6,89.8z"/>
				</g>
				<path class="st21" d="M48.7,69.2c-2.3,0-4.3,1.5-6.2,2.6c-1.8,1-3.7,2-5.5,3.1c-3.9,2-4.9,7.3-1.6,10.4c1.6,1.4,3.8,2,5.9,1.5
					c1.1-0.3,2-0.9,3-1.4c1-0.5,1.9-1,2.8-1.6c1.8-0.9,3.8-1.9,5.4-3.1c1.7-1.2,2.7-4.4,2.5-6.6C54.8,70.8,51.9,69.2,48.7,69.2z"/>
				<g>
					<path class="st20" d="M48.7,68.2c-2.3,0-4.3,1.5-6.2,2.6c-1.8,1-3.7,2-5.5,3.1c-3.9,2-4.9,7.3-1.6,10.4c1.6,1.4,3.8,2,5.9,1.5
						c1.1-0.3,2-0.9,3-1.4c1-0.5,1.9-1,2.8-1.6c1.8-0.9,3.8-1.9,5.4-3.1c1.7-1.3,2.7-3.4,2.5-5.6C54.8,70.8,51.9,68.2,48.7,68.2z"/>
					<path class="st22" d="M43.6,77c-2.3-3.6-4.3-2.5-6.4-1s-2.5,4.3-1,6.4c1.5,2,4.3,2.5,6.4,1S46.4,81.2,43.6,77z"/>
				</g>
				<path class="st21" d="M49.4,55.8c-2.1,0-4,1.4-5.8,2.4c-1.7,0.9-3.4,1.9-5.1,2.8c-3.6,1.9-4.6,6.8-1.5,9.7
					c1.4,1.3,3.5,1.9,5.4,1.4c1-0.2,1.9-0.8,2.8-1.3c0.9-0.5,1.8-1,2.6-1.5c1.7-0.9,3.5-1.8,5.1-2.9c1.6-1.2,2.5-4.2,2.4-6.2
					C55,57.2,52.4,55.8,49.4,55.8z"/>
				<g>
					<path class="st20" d="M49.4,54.8c-2.1,0-4,1.4-5.8,2.4c-1.7,0.9-3.4,1.9-5.1,2.8c-3.6,1.9-4.6,6.8-1.5,9.7
						c1.4,1.3,3.5,1.9,5.4,1.4c1-0.2,1.9-0.8,2.8-1.3c0.9-0.5,1.8-1,2.6-1.5c1.7-0.9,3.5-1.8,5.1-2.9c1.6-1.2,2.5-3.2,2.4-5.2
						C55,57.2,52.4,54.8,49.4,54.8z"/>
					<path class="st22" d="M44.7,63c-2.2-3.3-4-2.3-5.9-1s-2.3,4-1,5.9s4,2.3,5.9,1S47.2,66.9,44.7,63z"/>
				</g>
				<g>
					<path class="st21" d="M50.8,84.9c0,0,0.3,0,0.8,0.1c0.2,0.1,0.5,0.1,0.8,0.3c0.1,0.1,0.3,0.1,0.4,0.3c0.1,0.1,0.3,0.2,0.4,0.4
						l0.2,0.2c0,0,0,0,0.1,0.1l0,0.1c0.1,0.1,0.1,0.3,0.1,0.5c0,0.2,0,0.3,0,0.5c0,0.1,0,0.3-0.1,0.4c-0.1,0.5-0.3,0.8-0.3,0.8
						s0-0.3,0-0.8c0-0.2,0-0.5-0.1-0.8l0-0.2l-0.1-0.2l0-0.1c0,0,0,0,0-0.1l-0.1-0.2c-0.1-0.1-0.2-0.2-0.3-0.3
						c-0.1-0.1-0.2-0.2-0.3-0.3c-0.2-0.2-0.5-0.3-0.7-0.4C51.1,85.1,50.8,84.9,50.8,84.9z"/>
				</g>
				<g>
					<path class="st21" d="M52.8,84.9c0,0,0.3,0,0.8,0.1c0.2,0.1,0.5,0.1,0.8,0.3c0.1,0.1,0.3,0.1,0.4,0.3c0.1,0.1,0.3,0.2,0.4,0.4
						l0.2,0.2c0,0,0,0,0.1,0.1l0,0.1c0.1,0.1,0.1,0.3,0.1,0.5c0,0.2,0,0.3,0,0.5c0,0.1,0,0.3-0.1,0.4c-0.1,0.5-0.3,0.8-0.3,0.8
						s0-0.3,0-0.8c0-0.2,0-0.5-0.1-0.8l0-0.2l-0.1-0.2l0-0.1c0,0,0,0,0-0.1l-0.1-0.2c-0.1-0.1-0.2-0.2-0.3-0.3
						c-0.1-0.1-0.2-0.2-0.3-0.3c-0.2-0.2-0.5-0.3-0.7-0.4C53.1,85.1,52.8,84.9,52.8,84.9z"/>
				</g>
				<g>
					<path class="st21" d="M47.7,71.8c0,0,0.3,0,0.8,0.1c0.2,0.1,0.5,0.1,0.8,0.3c0.1,0.1,0.3,0.1,0.4,0.3c0.1,0.1,0.3,0.2,0.4,0.4
						l0.2,0.2c0,0,0,0,0.1,0.1l0,0.1c0.1,0.1,0.1,0.3,0.1,0.5c0,0.2,0,0.3,0,0.5c0,0.1,0,0.3-0.1,0.4c-0.1,0.5-0.3,0.8-0.3,0.8
						s0-0.3,0-0.8c0-0.2,0-0.5-0.1-0.8l0-0.2l-0.1-0.2l0-0.1c0,0,0,0,0-0.1l-0.1-0.2c-0.1-0.1-0.2-0.2-0.3-0.3
						c-0.1-0.1-0.2-0.2-0.3-0.3c-0.2-0.2-0.5-0.3-0.7-0.4C48,71.9,47.7,71.8,47.7,71.8z"/>
				</g>
				<g>
					<path class="st21" d="M49.7,71.8c0,0,0.3,0,0.8,0.1c0.2,0.1,0.5,0.1,0.8,0.3c0.1,0.1,0.3,0.1,0.4,0.3c0.1,0.1,0.3,0.2,0.4,0.4
						l0.2,0.2c0,0,0,0,0.1,0.1l0,0.1c0.1,0.1,0.1,0.3,0.1,0.5c0,0.2,0,0.3,0,0.5c0,0.1,0,0.3-0.1,0.4c-0.1,0.5-0.3,0.8-0.3,0.8
						s0-0.3,0-0.8c0-0.2,0-0.5-0.1-0.8l0-0.2l-0.1-0.2l0-0.1c0,0,0,0,0-0.1l-0.1-0.2c-0.1-0.1-0.2-0.2-0.3-0.3
						c-0.1-0.1-0.2-0.2-0.3-0.3c-0.2-0.2-0.5-0.3-0.7-0.4C50,71.9,49.7,71.8,49.7,71.8z"/>
				</g>
				<g>
					<path class="st21" d="M48.5,56.8c0,0,0.3,0,0.8,0.1c0.2,0.1,0.5,0.1,0.8,0.3c0.1,0.1,0.3,0.1,0.4,0.3c0.1,0.1,0.3,0.2,0.4,0.4
						l0.2,0.2c0,0,0,0,0.1,0.1l0,0.1c0.1,0.1,0.1,0.3,0.1,0.5c0,0.2,0,0.3,0,0.5c0,0.1,0,0.3-0.1,0.4c-0.1,0.5-0.3,0.8-0.3,0.8
						s0-0.3,0-0.8c0-0.2,0-0.5-0.1-0.8l0-0.2l-0.1-0.2l0-0.1c0,0,0,0,0-0.1l-0.1-0.2c-0.1-0.1-0.2-0.2-0.3-0.3
						c-0.1-0.1-0.2-0.2-0.3-0.3c-0.2-0.2-0.5-0.3-0.7-0.4C48.8,56.9,48.5,56.8,48.5,56.8z"/>
				</g>
				<g>
					<path class="st21" d="M50.5,56.8c0,0,0.3,0,0.8,0.1c0.2,0.1,0.5,0.1,0.8,0.3c0.1,0.1,0.3,0.1,0.4,0.3c0.1,0.1,0.3,0.2,0.4,0.4
						l0.2,0.2c0,0,0,0,0.1,0.1l0,0.1c0.1,0.1,0.1,0.3,0.1,0.5c0,0.2,0,0.3,0,0.5c0,0.1,0,0.3-0.1,0.4c-0.1,0.5-0.3,0.8-0.3,0.8
						s0-0.3,0-0.8c0-0.2,0-0.5-0.1-0.8l0-0.2l-0.1-0.2l0-0.1c0,0,0,0,0-0.1l-0.1-0.2c-0.1-0.1-0.2-0.2-0.3-0.3
						c-0.1-0.1-0.2-0.2-0.3-0.3c-0.2-0.2-0.5-0.3-0.7-0.4C50.8,56.9,50.5,56.8,50.5,56.8z"/>
				</g>
			</g>
		</g>
	</g>
	<g>
		<ellipse class="st98" cx="69" cy="74.1" rx="2.5" ry="0.7"/>
		<path class="st99" d="M71,74c0,0-0.5,0.4-2,0.4c-1.4,0-2-0.4-2-0.4V0.5l0,0c1.2-0.6,2.7-0.6,4,0l0,0V74z"/>
		<rect x="67.2" y="6.4" class="st100" width="1" height="11"/>
		<polygon class="st101" points="32.7,16.9 67.8,16.9 67.8,6.9 32.7,6.9 27.8,11.7 		"/>
		<polygon class="st102" points="32.7,16.9 67.8,16.9 67.8,11.8 27.8,11.7 		"/>
		<g>
			<path class="st22" d="M35.1,9.7h2.5v0.7H36v0.8h1.3V12H36v0.9h1.6v0.7h-2.5V9.7z"/>
			<path class="st22" d="M38.7,12.5c0.3,0.2,0.6,0.4,1,0.4c0.4,0,0.5-0.1,0.5-0.4c0-0.2-0.2-0.3-0.6-0.5l-0.5-0.2
				c-0.4-0.2-0.8-0.5-0.8-1.1c0-0.6,0.6-1.2,1.4-1.2c0.5,0,0.9,0.2,1.3,0.5l-0.4,0.6c-0.3-0.2-0.5-0.3-0.8-0.3
				c-0.3,0-0.5,0.1-0.5,0.4c0,0.2,0.3,0.3,0.6,0.5l0.5,0.2c0.5,0.2,0.8,0.5,0.8,1.1c0,0.6-0.5,1.2-1.5,1.2c-0.5,0-1-0.2-1.5-0.6
				L38.7,12.5z"/>
			<path class="st22" d="M41.9,12.5c0.3,0.2,0.6,0.4,1,0.4c0.4,0,0.5-0.1,0.5-0.4c0-0.2-0.2-0.3-0.6-0.5l-0.5-0.2
				c-0.4-0.2-0.8-0.5-0.8-1.1c0-0.6,0.6-1.2,1.4-1.2c0.5,0,0.9,0.2,1.3,0.5l-0.4,0.6c-0.3-0.2-0.5-0.3-0.8-0.3
				c-0.3,0-0.5,0.1-0.5,0.4c0,0.2,0.3,0.3,0.6,0.5l0.5,0.2c0.5,0.2,0.8,0.5,0.8,1.1c0,0.6-0.5,1.2-1.5,1.2c-0.5,0-1-0.2-1.5-0.6
				L41.9,12.5z"/>
			<path class="st22" d="M44.9,9.7h2.5v0.7h-1.6v0.8h1.3V12h-1.3v0.9h1.6v0.7h-2.5V9.7z"/>
			<path class="st22" d="M48.2,9.7h0.9l1,1.9l0.4,0.9h0c0-0.4-0.1-1-0.1-1.4V9.7h0.8v3.9h-0.9l-1-1.9L49,10.8h0c0,0.4,0.1,1,0.1,1.4
				v1.4h-0.8V9.7z"/>
			<path class="st22" d="M52.2,9.7h1.1c1.2,0,2,0.6,2,1.9s-0.8,2-1.9,2h-1.2V9.7z M53.3,12.9c0.7,0,1.1-0.3,1.1-1.3
				c0-0.9-0.4-1.2-1.1-1.2h-0.2v2.5H53.3z"/>
			<path class="st22" d="M55.8,11.7c0-1.3,0.7-2,1.8-2c1.1,0,1.8,0.7,1.8,2c0,1.3-0.7,2-1.8,2C56.5,13.7,55.8,12.9,55.8,11.7z
				 M58.5,11.7c0-0.8-0.3-1.2-0.9-1.2c-0.5,0-0.9,0.5-0.9,1.2c0,0.8,0.3,1.3,0.9,1.3C58.1,13,58.5,12.5,58.5,11.7z"/>
			<path class="st22" d="M60.1,9.7H61l1,1.9l0.4,0.9h0c0-0.4-0.1-1-0.1-1.4V9.7h0.8v3.9h-0.9l-1-1.9l-0.4-0.9h0c0,0.4,0.1,1,0.1,1.4
				v1.4h-0.8V9.7z"/>
		</g>
		<polygon class="st101" points="71,21.3 90,21.3 95,16.2 90,11.3 71,11.3 		"/>
		<polygon class="st102" points="71,21.3 90,21.3 95,16.2 71,16.3 		"/>
		<g>
			<path class="st22" d="M75.5,17c0.2,0.2,0.5,0.4,0.8,0.4c0.4,0,0.6-0.2,0.6-0.4c0-0.3-0.2-0.5-1-0.5v-0.6c0.7,0,0.9-0.2,0.9-0.5
				c0-0.3-0.2-0.4-0.5-0.4c-0.3,0-0.5,0.1-0.7,0.3l-0.4-0.5c0.3-0.3,0.7-0.5,1.2-0.5c0.8,0,1.3,0.4,1.3,1c0,0.4-0.2,0.7-0.6,0.8v0
				c0.4,0.1,0.8,0.4,0.8,0.9c0,0.7-0.6,1.1-1.4,1.1c-0.6,0-1-0.2-1.3-0.5L75.5,17z"/>
			<path class="st22" d="M78.3,16.1c0-1.3,0.5-2,1.4-2s1.4,0.7,1.4,2s-0.5,2-1.4,2S78.3,17.4,78.3,16.1z M80.2,16.1
				c0-1-0.2-1.3-0.5-1.3c-0.3,0-0.5,0.2-0.5,1.3c0,1,0.2,1.3,0.5,1.3C80,17.4,80.2,17.2,80.2,16.1z"/>
			<path class="st22" d="M81.7,17.3h0.8v-2.2h-0.7v-0.5c0.4-0.1,0.7-0.2,0.9-0.3h0.6v3.1h0.7v0.7h-2.4V17.3z"/>
			<path class="st22" d="M87.4,17.1H87v0.9h-0.8v-0.9h-1.6v-0.6l1.4-2.3H87v2.2h0.4V17.1z M86.2,16.5v-0.6c0-0.2,0-0.6,0-0.9h0
				c-0.1,0.2-0.2,0.4-0.3,0.6l-0.5,0.8H86.2z"/>
		</g>
		<path class="st100" d="M71,74c-0.3,0.4-1.9,0.4-1.9,0.4V0.5H71V74z"/>
		<ellipse class="st100" cx="69" cy="0.5" rx="2" ry="0.5"/>
	</g>
</g>
<g id="swatches">
</g>
</svg>
