<?xml version="1.0" encoding="utf-8"?>
<!-- Generator: Adobe Illustrator 18.1.0, SVG Export Plug-In . SVG Version: 6.00 Build 0)  -->
<!DOCTYPE svg PUBLIC "-//W3C//DTD SVG 1.1//EN" "http://www.w3.org/Graphics/SVG/1.1/DTD/svg11.dtd">
<svg version="1.1" xmlns="http://www.w3.org/2000/svg" xmlns:xlink="http://www.w3.org/1999/xlink" x="0px" y="0px"
	 viewBox="0 0 100 100" style="enable-background:new 0 0 100 100;" xml:space="preserve">
<style type="text/css">
	.st0{display:none;fill:#FFFFFF;stroke:#C6C6C6;stroke-width:0.5;stroke-miterlimit:10;}
	.st1{display:none;fill:#FFE168;stroke:#F9B233;stroke-width:0.5;stroke-miterlimit:10;}
	.st2{clip-path:url(#SVGID_2_);fill:#FEF4E8;}
	.st3{clip-path:url(#SVGID_2_);fill:#B5D184;}
	.st4{clip-path:url(#SVGID_2_);fill:#FFE4C7;}
	.st5{clip-path:url(#SVGID_2_);fill:#FFFFFF;stroke:#DADADA;stroke-width:0.5;stroke-miterlimit:10;}
	.st6{clip-path:url(#SVGID_2_);}
	.st7{fill:none;stroke:#9E9198;stroke-miterlimit:10;}
	.st8{clip-path:url(#SVGID_2_);fill:#FFE23B;stroke:#FDC010;stroke-miterlimit:10;}
	.st9{clip-path:url(#SVGID_2_);fill:#FFFFFF;stroke:#C6C6C6;stroke-width:0.5;stroke-miterlimit:10;}
	.st10{fill:#E84738;}
	.st11{fill:none;}
	.st12{fill:#D7ECF1;}
	.st13{display:none;clip-path:url(#SVGID_4_);}
	.st14{display:inline;fill:#CEBFA5;}
	.st15{display:inline;fill:#EFE5DF;}
	.st16{display:inline;fill:#DBCCAF;}
	.st17{display:inline;}
	.st18{fill:none;stroke:#BAA890;stroke-width:0.5;stroke-linecap:round;stroke-miterlimit:10;}
	.st19{clip-path:url(#SVGID_6_);}
	.st20{fill:#FFE4C7;}
	.st21{fill:#EFD5BB;}
	.st22{fill:#FFFFFF;}
	.st23{fill:#374654;}
	.st24{opacity:0.1;fill:#FFFFFF;}
	.st25{fill:#FDC010;}
	.st26{fill:#246CD3;}
	.st27{fill:#FFCE00;}
	.st28{fill:#0023A0;}
	.st29{fill:#FFE4C7;stroke:#EFD5BB;stroke-linecap:round;stroke-miterlimit:10;}
	.st30{clip-path:url(#SVGID_8_);fill:#D7ECF1;}
	.st31{clip-path:url(#SVGID_8_);fill:#92AC64;}
	.st32{clip-path:url(#SVGID_8_);fill:#B5D184;}
	.st33{clip-path:url(#SVGID_8_);}
	.st34{fill:#EDEDED;}
	.st35{fill:#DADADA;}
	.st36{fill:#C6C6C6;}
	.st37{fill:#575756;}
	.st38{fill:#F6F6F6;}
	.st39{fill:#126AD9;}
	.st40{fill:#D8DBDF;}
	.st41{clip-path:url(#SVGID_10_);fill:#818385;}
	.st42{clip-path:url(#SVGID_10_);fill:#F8F8F9;}
	.st43{clip-path:url(#SVGID_12_);fill:#818385;}
	.st44{clip-path:url(#SVGID_12_);fill:#F8F8F9;}
	.st45{clip-path:url(#SVGID_14_);fill:#818385;}
	.st46{clip-path:url(#SVGID_14_);fill:#F8F8F9;}
	.st47{clip-path:url(#SVGID_16_);fill:#818385;}
	.st48{clip-path:url(#SVGID_16_);fill:#F8F8F9;}
	.st49{clip-path:url(#SVGID_18_);fill:#818385;}
	.st50{clip-path:url(#SVGID_18_);fill:#F8F8F9;}
	.st51{clip-path:url(#SVGID_20_);fill:#818385;}
	.st52{clip-path:url(#SVGID_20_);fill:#F8F8F9;}
	.st53{clip-path:url(#SVGID_22_);fill:#818385;}
	.st54{clip-path:url(#SVGID_22_);fill:#F8F8F9;}
	.st55{clip-path:url(#SVGID_24_);fill:#818385;}
	.st56{clip-path:url(#SVGID_24_);fill:#F8F8F9;}
	.st57{clip-path:url(#SVGID_26_);fill:#818385;}
	.st58{clip-path:url(#SVGID_26_);fill:#F8F8F9;}
	.st59{clip-path:url(#SVGID_28_);fill:#818385;}
	.st60{clip-path:url(#SVGID_28_);fill:#F8F8F9;}
	.st61{clip-path:url(#SVGID_30_);fill:#818385;}
	.st62{clip-path:url(#SVGID_30_);fill:#F8F8F9;}
	.st63{clip-path:url(#SVGID_32_);fill:#818385;}
	.st64{clip-path:url(#SVGID_32_);fill:#F8F8F9;}
	.st65{clip-path:url(#SVGID_34_);fill:#818385;}
	.st66{clip-path:url(#SVGID_34_);fill:#F8F8F9;}
	.st67{clip-path:url(#SVGID_36_);fill:#818385;}
	.st68{clip-path:url(#SVGID_36_);fill:#F8F8F9;}
	.st69{clip-path:url(#SVGID_38_);fill:#818385;}
	.st70{clip-path:url(#SVGID_38_);fill:#F8F8F9;}
	.st71{clip-path:url(#SVGID_40_);fill:#818385;}
	.st72{clip-path:url(#SVGID_40_);fill:#F8F8F9;}
	.st73{clip-path:url(#SVGID_42_);fill:#818385;}
	.st74{clip-path:url(#SVGID_42_);fill:#F8F8F9;}
	.st75{clip-path:url(#SVGID_44_);fill:#818385;}
	.st76{clip-path:url(#SVGID_44_);fill:#F8F8F9;}
	.st77{clip-path:url(#SVGID_46_);fill:#818385;}
	.st78{clip-path:url(#SVGID_46_);fill:#F8F8F9;}
	.st79{clip-path:url(#SVGID_48_);fill:#818385;}
	.st80{clip-path:url(#SVGID_48_);fill:#F8F8F9;}
	.st81{clip-path:url(#SVGID_50_);fill:#818385;}
	.st82{clip-path:url(#SVGID_50_);fill:#F8F8F9;}
	.st83{clip-path:url(#SVGID_52_);fill:#818385;}
	.st84{clip-path:url(#SVGID_52_);fill:#F8F8F9;}
	.st85{clip-path:url(#SVGID_54_);fill:#818385;}
	.st86{clip-path:url(#SVGID_54_);fill:#F8F8F9;}
	.st87{clip-path:url(#SVGID_56_);fill:#818385;}
	.st88{clip-path:url(#SVGID_56_);fill:#F8F8F9;}
	.st89{clip-path:url(#SVGID_58_);fill:#818385;}
	.st90{clip-path:url(#SVGID_58_);fill:#F8F8F9;}
	.st91{clip-path:url(#SVGID_60_);fill:#818385;}
	.st92{clip-path:url(#SVGID_60_);fill:#F8F8F9;}
	.st93{fill:#818385;}
	.st94{fill:#C7CACD;}
	.st95{fill:#C0C2C6;}
	.st96{fill:#F8F8F9;}
	.st97{fill:none;stroke:#000000;stroke-width:0.2;stroke-miterlimit:10;}
	.st98{opacity:0.1;}
	.st99{fill:#B99966;}
	.st100{fill:#9D7543;}
	.st101{fill:#B5D184;}
	.st102{display:none;fill:#92AC64;}
	.st103{fill:#E0DE71;}
	.st104{fill:#FFE23B;}
	.st105{fill:#9E9198;}
	.st106{fill:#92AC64;}
	.st107{fill:#6B6785;}
	.st108{fill:#B5675D;}
	.st109{fill:#EF8778;}
	.st110{fill:#FEF4E8;}
</style>
<g id="Layer_1">
</g>
<g id="Layer_2">
	<polyline class="st11" points="0,100 0,0 100,0 100,100 	"/>
	<circle class="st12" cx="50" cy="50" r="50"/>
	<g>
		<defs>
			<circle id="SVGID_3_" cx="50" cy="50" r="50"/>
		</defs>
		<clipPath id="SVGID_2_">
			<use xlink:href="#SVGID_3_"  style="overflow:visible;"/>
		</clipPath>
		<g style="display:none;clip-path:url(#SVGID_2_);">
			
				<ellipse transform="matrix(0.9445 0.3286 -0.3286 0.9445 23.942 -34.6981)" class="st14" cx="114.6" cy="53.5" rx="23.2" ry="23.2"/>
			
				<ellipse transform="matrix(0.9951 -9.918173e-02 9.918173e-02 0.9951 -1.5993 4.3298)" class="st14" cx="42.7" cy="18.2" rx="11.2" ry="7.5"/>
			
				<ellipse transform="matrix(0.9928 0.1198 -0.1198 0.9928 2.7026 -7.1462)" class="st14" cx="60.8" cy="18.9" rx="16.7" ry="7.5"/>
			
				<ellipse transform="matrix(0.9445 0.3286 -0.3286 0.9445 13.0685 -25.1971)" class="st14" cx="81.1" cy="26.1" rx="16.7" ry="8.4"/>
			
				<ellipse transform="matrix(0.9445 0.3286 -0.3286 0.9445 16.1821 -30.4329)" class="st14" cx="98.1" cy="32.7" rx="11.6" ry="11.7"/>
			<circle class="st14" cx="42.7" cy="18.2" r="7.5"/>
			<path class="st14" d="M50.2,10.2c0,0,17.2,1.5,20,1.9c2.8,0.4,29.7,9,29.7,9v13.5L42.7,18.2v-7.5C42.7,10.8,48.4,10.2,50.2,10.2z
				"/>
			<path class="st15" d="M32.8,15.2l-0.2-0.5c5.4-3.2,12.6-4.1,12.6-4.1l0.2,0.5c0,0-3.9,5.3-9.5,7.2C35.9,18.2,34.6,14.6,32.8,15.2
				z"/>
		</g>
		<g style="display:none;clip-path:url(#SVGID_2_);">
			<rect x="56.5" y="63.5" class="st16" width="45.2" height="20"/>
			<circle class="st16" cx="56.5" cy="73.5" r="10"/>
			<path class="st15" d="M49.5,73.5c0,3.9,3.1,7,7,7s7,1,7-7s-3.1-7-7-7S49.5,69.6,49.5,73.5z"/>
			<g class="st17">
				<path class="st18" d="M79.1,69.3c0,0,1.9,1.9,1.9,4.5c0,2.3-1.9,4.1-1.9,4.1"/>
				<path class="st18" d="M76.7,70.1c0,0,1.1,1.3,1.1,2.2"/>
				<path class="st18" d="M76.7,72.9c0,0,0.9,0.6,0.7,2.1c-0.2,1.3-0.9,2.1-0.9,2.1"/>
			</g>
		</g>
	</g>
	<g>
		<defs>
			<circle id="SVGID_5_" cx="50" cy="50" r="50"/>
		</defs>
		<clipPath id="SVGID_4_">
			<use xlink:href="#SVGID_5_"  style="overflow:visible;"/>
		</clipPath>
		<g style="clip-path:url(#SVGID_4_);">
			<g>
				<path class="st20" d="M8.5,80.1v-17h52.3c4.7,0,8.5,3.8,8.5,8.5s-3.8,8.5-8.5,8.5H8.5z"/>
				<path class="st21" d="M60.8,63.6c4.4,0,8,3.6,8,8s-3.6,8-8,8H9v-16H60.8 M60.8,62.6H8v18h52.8c5,0,9-4,9-9S65.8,62.6,60.8,62.6
					L60.8,62.6z"/>
			</g>
			<g>
				<path class="st20" d="M-0.5,79.5V18.9c0-4.7,3.8-8.5,8.5-8.5s8.5,3.8,8.5,8.5v60.6H-0.5z"/>
				<path class="st21" d="M8,10.9c4.4,0,8,3.6,8,8V79H0V18.9C0,14.5,3.6,10.9,8,10.9 M8,9.9c-5,0-9,4-9,9V80h18V18.9
					C17,14,13,9.9,8,9.9L8,9.9z"/>
			</g>
			<g>
				<g>
					<path class="st20" d="M0.5,97.1v-17h52.3c4.7,0,8.5,3.8,8.5,8.5s-3.8,8.5-8.5,8.5H0.5z"/>
					<path class="st21" d="M52.8,80.6c4.4,0,8,3.6,8,8s-3.6,8-8,8H1v-16H52.8 M52.8,79.6H0v18h52.8c5,0,9-4,9-9
						C61.8,83.6,57.8,79.6,52.8,79.6L52.8,79.6z"/>
				</g>
				<path class="st22" d="M38.9,81.6c4.8,0,4.3,3.1,4.3,7c0,3.9,0.9,7-4.3,7c-3.9,0-7-3.1-7-7C31.9,84.7,35,81.6,38.9,81.6z"/>
				<g>
					<g>
						<path class="st21" d="M51.1,83.3c0,0,0.5,0.3,1.1,1c0.3,0.3,0.6,0.7,0.9,1.2c0.3,0.5,0.5,1.1,0.6,1.7c0,0.3,0,0.7,0,0.9
							c0,0.3-0.1,0.6-0.3,0.9c-0.2,0.5-0.6,1-0.9,1.3c-0.6,0.7-1.1,1-1.1,1s0.4-0.4,0.9-1.1c0.3-0.4,0.5-0.8,0.7-1.3
							c0.1-0.3,0.2-0.5,0.2-0.8c0-0.3,0-0.5,0-0.8c-0.1-0.6-0.3-1.1-0.5-1.6c-0.2-0.5-0.5-0.9-0.8-1.3
							C51.5,83.8,51.1,83.3,51.1,83.3z"/>
					</g>
					<g>
						<path class="st21" d="M54.3,84.2c0,0,0.5,0.3,1.1,1c0.3,0.3,0.6,0.7,0.9,1.2c0.3,0.5,0.5,1.1,0.6,1.7c0,0.3,0,0.7,0,0.9
							c0,0.3-0.1,0.6-0.3,0.9c-0.2,0.5-0.6,1-0.9,1.3c-0.6,0.7-1.1,1-1.1,1s0.4-0.4,0.9-1.1c0.3-0.4,0.5-0.8,0.7-1.3
							c0.1-0.3,0.2-0.5,0.2-0.8c0-0.3,0-0.5,0-0.8c-0.1-0.6-0.3-1.1-0.5-1.6c-0.2-0.5-0.5-0.9-0.8-1.3
							C54.7,84.7,54.3,84.2,54.3,84.2z"/>
					</g>
				</g>
			</g>
			<polygon class="st20" points="40.6,100 1.2,100 1.2,66 40,66 			"/>
		</g>
	</g>
	<path class="st23" d="M94.7,76.3H13.1c-2.9,0-5.3-2.4-5.3-5.3V28.9c0-2.9,2.4-5.3,5.3-5.3h81.6c2.9,0,5.3,2.4,5.3,5.3v42.1
		C100,74,97.6,76.3,94.7,76.3z"/>
	<path class="st24" d="M94.7,23.7H13.1c-1.1,0-2.1,0.3-2.9,0.9C7.7,39.1,26.3,55,52.1,60.1c20.4,4.1,39.3,0.3,47.9-8.6V28.9
		c0-1-0.3-2-0.8-2.8c-0.3-0.4-0.6-0.7-1-1.1C97.3,24.2,96.1,23.7,94.7,23.7z"/>
	<path class="st11" d="M94.7,76.3H13.1c-2.9,0-5.3-2.4-5.3-5.3V28.9c0-2.9,2.4-5.3,5.3-5.3h81.6c2.9,0,5.3,2.4,5.3,5.3v42.1
		C100,74,97.6,76.3,94.7,76.3z"/>
	<g>
		<path class="st22" d="M17.4,69.6v0.2h-1.8v-0.2c0.5,0,0.6-0.1,0.6-0.8h-1.5v-0.2l1.9-2.5h0.2v2.4c0.4,0,0.5-0.1,0.7-0.6l0-0.2h0.2
			l-0.1,1.1h-0.8C16.8,69.5,16.9,69.6,17.4,69.6z M16.2,67l-1.1,1.4h1.1V67z"/>
		<path class="st22" d="M18.7,69.6l1.4-1.3c0.3-0.3,0.5-0.6,0.5-0.9c0-0.6-0.3-0.8-0.8-0.8c-0.5,0-1,0.5-0.5,1.2L19,68
			c-0.8-0.6-0.4-1.8,0.8-1.8c0.7,0,1.3,0.4,1.3,1.1c0,0.6-0.6,1.1-0.6,1.1l-1.1,0.9h1.8l-0.1,0.5h-2.5V69.6z"/>
		<path class="st22" d="M23.6,69.9c-0.7,0-1.3-0.8-1.3-1.8c0-1,0.6-1.8,1.3-1.8c0.8,0,1.4,0.8,1.4,1.8C25,69.1,24.4,69.9,23.6,69.9z
			 M23.6,66.5c-0.5,0-0.8,0.7-0.8,1.5c0,0.9,0.2,1.5,0.8,1.5c0.5,0,0.8-0.7,0.8-1.5C24.4,67.2,24.2,66.5,23.6,66.5z"/>
		<path class="st22" d="M27.3,69.9c-0.7,0-1.3-0.8-1.3-1.8c0-1,0.6-1.8,1.3-1.8c0.8,0,1.4,0.8,1.4,1.8
			C28.7,69.1,28.1,69.9,27.3,69.9z M27.3,66.5c-0.5,0-0.8,0.7-0.8,1.5c0,0.9,0.2,1.5,0.8,1.5c0.5,0,0.8-0.7,0.8-1.5
			C28.1,67.2,27.9,66.5,27.3,66.5z"/>
		<path class="st22" d="M31.9,69.8v-0.2c0.5,0,0.6-0.1,0.6-0.9v-1.2c0-0.8-0.2-0.9-0.8-0.9v-0.2l1.3-0.3v2.5c0,0.8,0.1,0.9,0.6,0.9
			v0.2H31.9z"/>
		<path class="st22" d="M35.3,69.6l1.4-1.3c0.3-0.3,0.5-0.6,0.5-0.9c0-0.6-0.3-0.8-0.8-0.8c-0.5,0-1,0.5-0.5,1.2L35.6,68
			c-0.8-0.6-0.4-1.8,0.8-1.8c0.7,0,1.3,0.4,1.3,1.1c0,0.6-0.6,1.1-0.6,1.1L36,69.3h1.8l-0.1,0.5h-2.5V69.6z"/>
		<path class="st22" d="M40.1,68.2c-0.1,0.1-0.2,0.2-0.2,0.2c-0.1,0-0.2-0.1-0.2-0.2c0-0.1,0-0.1,0.1-0.2l1.1-1.2h-1
			c-0.3,0-0.6,0.1-0.7,0.4l0,0.2H39l0.2-1.1h2.3v0.2l-0.9,1.1c0.6,0.2,1,0.6,1,1.1c0,0.6-0.6,1.2-1.4,1.2c-0.8,0-1.2-0.5-1.2-0.7
			c0-0.1,0.1-0.2,0.2-0.2c0.3,0,0.2,0.6,1,0.6c0.6,0,0.8-0.4,0.8-0.8c0-0.4-0.3-0.8-0.7-0.8C40.2,67.9,40.2,68,40.1,68.2z"/>
		<path class="st22" d="M45.1,69.6v0.2h-1.8v-0.2c0.5,0,0.6-0.1,0.6-0.8h-1.5v-0.2l1.9-2.5h0.2v2.4c0.4,0,0.5-0.1,0.7-0.6l0-0.2h0.2
			l-0.1,1.1h-0.8C44.4,69.5,44.5,69.6,45.1,69.6z M43.9,67l-1.1,1.4h1.1V67z"/>
		<path class="st22" d="M49.3,69.9c-0.7,0-1.1-0.5-0.8-0.7c0.2-0.1,0.3,0.4,0.8,0.4c0.6,0,0.8-0.7,0.9-1.4c-0.1,0.2-0.4,0.3-0.7,0.3
			c-0.7,0-1.3-0.5-1.3-1.1c0-0.6,0.5-1.1,1.2-1.1c0.5,0,1.3,0.3,1.3,1.6C50.7,68.8,50.2,69.9,49.3,69.9z M49.4,66.5
			c-0.5,0-0.6,0.4-0.6,0.8c0,0.4,0.2,0.8,0.7,0.8c0.3,0,0.7-0.2,0.7-0.4C50.1,66.9,49.8,66.5,49.4,66.5z"/>
		<path class="st22" d="M53.1,69.9c-0.7,0-1.3-0.5-1.3-1c0-0.6,0.4-0.8,0.9-1c-0.3-0.2-0.7-0.5-0.7-0.8c0-0.5,0.5-0.9,1.1-0.9
			c0.6,0,1.1,0.4,1.1,0.8c0,0.4-0.4,0.6-0.8,0.8c0.5,0.2,0.9,0.5,0.9,1C54.4,69.4,53.9,69.9,53.1,69.9z M53,68
			c-0.3,0.2-0.6,0.4-0.6,0.9c0,0.4,0.3,0.7,0.8,0.7c0.5,0,0.8-0.3,0.8-0.7C53.9,68.5,53.4,68.3,53,68z M53.1,66.5
			c-0.3,0-0.6,0.2-0.6,0.5c0,0.3,0.4,0.5,0.7,0.7c0.3-0.1,0.5-0.4,0.5-0.7C53.7,66.7,53.5,66.5,53.1,66.5z"/>
		<path class="st22" d="M58.2,66.5l-1.5,3c-0.1,0.2-0.2,0.4-0.4,0.3c-0.1,0-0.3-0.2-0.1-0.5l1.7-2.6h-1.5c-0.3,0-0.6,0.1-0.7,0.4
			l0,0.2h-0.2l0.2-1.1h2.6V66.5z"/>
		<path class="st22" d="M60.6,69.9c-0.5,0-1.3-0.3-1.3-1.6c0-1,0.5-2,1.4-2c0.7,0,1.1,0.5,0.8,0.7c-0.3,0.2-0.3-0.4-0.8-0.4
			c-0.6,0-0.8,0.7-0.9,1.4c0.1-0.1,0.4-0.3,0.7-0.3c0.6,0,1.2,0.5,1.2,1.1C61.8,69.4,61.3,69.9,60.6,69.9z M60.5,68
			c-0.3,0-0.7,0.1-0.7,0.4c0,0.8,0.4,1.2,0.8,1.2c0.5,0,0.6-0.5,0.6-0.8C61.2,68.4,61,68,60.5,68z"/>
	</g>
	<g>
		<path class="st25" d="M31.3,32.2L31.3,32.2C31.3,32.2,31.3,32.1,31.3,32.2c0-0.3-0.2-0.5-0.4-0.7c0,0-0.1,0-0.1,0
			c-1.6-0.8-3.5-1.3-5.4-1.3c-2,0-3.8,0.5-5.4,1.3c0,0-0.1,0-0.1,0c-0.2,0.1-0.4,0.4-0.4,0.7h0c0,0.3,0,0.6,0,0.9
			c0,1.7,0.3,3.3,1,4.7c0.1,0.3,0.3,0.7,0.5,1c1,1.8,2.3,3.3,4,4.4c0,0,0.1,0.1,0.1,0.1c0.1,0.1,0.2,0.1,0.4,0.1
			c0.1,0,0.3,0,0.4-0.1c0,0,0.1-0.1,0.1-0.1c2.6-1.7,4.5-4.4,5.2-7.5c0.1-0.3,0.1-0.7,0.2-1.1c0.1-0.5,0.1-1,0.1-1.6
			C31.3,32.7,31.3,32.5,31.3,32.2z M30.1,34.6c-0.1,0.4-0.1,0.7-0.2,1.1c-0.3,1-0.6,2-1.2,2.9C28,39.9,27,41,25.8,41.8
			c-0.1,0.1-0.2,0.1-0.3,0.2c0,0,0,0,0,0c0,0,0,0,0,0c-0.1,0-0.1,0.1-0.2,0.1c-0.1,0-0.1,0-0.2-0.1c0,0,0,0,0,0c0,0,0,0,0,0
			c-0.1-0.1-0.2-0.1-0.3-0.2c-1.2-0.9-2.2-2-2.9-3.3c-0.1-0.1-0.1-0.2-0.2-0.3c-0.2-0.3-0.3-0.7-0.5-1c-0.6-1.3-0.8-2.8-0.8-4.2
			c0,0,0,0,0,0c0-0.1,0-0.2,0-0.3c0,0,0,0,0,0c0,0,0,0,0-0.1c0-0.1,0.1-0.2,0.2-0.3c0,0,0,0,0.1,0v0c0.1-0.1,0.2-0.1,0.3-0.1
			c0.5-0.2,1-0.4,1.5-0.5c0.9-0.2,1.9-0.4,2.8-0.4c1,0,1.9,0.1,2.8,0.4c0.5,0.1,1,0.3,1.5,0.5c0.1,0.1,0.2,0.1,0.4,0.2
			c0.1,0.1,0.2,0.2,0.2,0.3c0,0,0,0,0,0c0,0.1,0,0.3,0,0.4c0,0,0,0,0,0C30.2,33.6,30.2,34.1,30.1,34.6z"/>
		<path class="st25" d="M29.5,32.7c0,0-0.1-0.1-0.2-0.1l0,0c-0.4-0.2-0.9-0.3-1.3-0.4c-0.9-0.2-1.8-0.3-2.7-0.3
			c-0.9,0-1.8,0.1-2.7,0.3c-0.4,0.1-0.9,0.3-1.3,0.4l0,0c-0.1,0-0.1,0.1-0.2,0.1c-0.1,0.1-0.1,0.1-0.1,0.2c0,0.1,0,0.1,0,0.2
			c0,0,0,0,0,0c0,0,0,0,0,0c0,1.2,0.2,2.4,0.6,3.5c0,0,0,0.1,0,0.1c0.1,0.1,0.2,0.2,0.3,0.2c0,0,0.1,0,0.1,0c0,0,0.1,0,0.1,0
			c0.1,0,0.1-0.1,0.2-0.1c2.3-1.1,4.6-1.7,6.6-2c0,0,0,0,0,0c0,0,0.1,0,0.1,0c0.2,0,0.4-0.2,0.4-0.4c0,0,0,0,0,0c0,0,0,0,0,0
			c0-0.4,0.1-0.7,0.1-1.1c0,0,0,0,0,0c0,0,0,0,0,0c0-0.1,0-0.1,0-0.2C29.6,32.8,29.6,32.8,29.5,32.7z"/>
		<path class="st25" d="M28.8,35.9C28.8,35.9,28.8,35.9,28.8,35.9C28.7,35.9,28.7,35.9,28.8,35.9c-1.8,0.3-3.8,1-5.8,1.9
			c0,0,0,0,0,0c0,0,0,0,0,0c0,0-0.1,0-0.1,0c-0.2,0.1-0.3,0.3-0.3,0.5c0,0.1,0,0.2,0.1,0.3l0,0c0.7,1.1,1.5,2,2.5,2.8c0,0,0,0,0,0
			c0,0,0,0,0.1,0c0,0,0.1,0,0.1,0c0,0,0.1,0,0.1,0c0,0,0,0,0.1,0c0,0,0,0,0,0c1.1-0.8,2-1.9,2.6-3c0.4-0.6,0.6-1.2,0.9-1.9
			c0,0,0-0.1,0-0.1v0c0,0,0,0,0-0.1C29.2,36.1,29,35.9,28.8,35.9z"/>
	</g>
	<g>
		<g>
			<polyline class="st26" points="65.9,41.9 67.5,31.7 70.2,31.7 68.5,41.9 65.9,41.9 			"/>
			<path class="st26" d="M78.1,31.9c-0.5-0.2-1.3-0.4-2.4-0.4c-2.6,0-4.4,1.4-4.5,3.4c0,1.5,1.3,2.3,2.3,2.8c1,0.5,1.4,0.8,1.4,1.3
				c0,0.7-0.8,1-1.6,1c-1.1,0-1.6-0.2-2.5-0.5l-0.3-0.2l-0.4,2.3c0.6,0.3,1.8,0.5,2.9,0.5c2.8,0,4.6-1.4,4.6-3.5
				c0-1.2-0.7-2-2.2-2.8C74.6,35.3,74,35,74,34.5c0-0.4,0.5-0.9,1.5-0.9c0.9,0,1.5,0.2,2,0.4l0.2,0.1L78.1,31.9"/>
			<path class="st26" d="M84.8,31.7h-2c-0.6,0-1.1,0.2-1.4,0.8l-3.9,9.4h2.8c0,0,0.5-1.3,0.6-1.5c0.3,0,3,0,3.4,0
				c0.1,0.4,0.3,1.5,0.3,1.5H87L84.8,31.7 M81.6,38.3c0.2-0.6,1-2.9,1-2.9c0,0,0.2-0.6,0.4-1l0.2,0.9c0,0,0.5,2.4,0.6,2.9
				C83.4,38.3,82.1,38.3,81.6,38.3z"/>
			<path class="st26" d="M63.7,31.7l-2.6,7l-0.3-1.4c-0.5-1.6-2-3.4-3.6-4.3l2.4,8.9l2.8,0l4.1-10.2H63.7"/>
			<path class="st27" d="M58.7,31.7h-4.2l0,0.2c3.3,0.8,5.5,2.9,6.4,5.3l-0.9-4.7C59.7,31.9,59.3,31.7,58.7,31.7z"/>
		</g>
		<g>
			<path class="st28" d="M87.8,40.7c0.3,0,0.6,0.3,0.6,0.6c0,0.3-0.3,0.6-0.6,0.6c-0.3,0-0.6-0.3-0.6-0.6
				C87.3,40.9,87.5,40.7,87.8,40.7z M87.8,41.7c0.3,0,0.5-0.2,0.5-0.5c0-0.3-0.2-0.5-0.5-0.5s-0.5,0.2-0.5,0.5
				C87.4,41.5,87.6,41.7,87.8,41.7z M87.6,40.9h0.3c0.1,0,0.2,0,0.2,0.2c0,0,0,0.1-0.1,0.1v0c0.1,0,0.1,0.1,0.1,0.1
				c0,0.1,0,0.1,0,0.1H88c0,0,0,0,0-0.1c0-0.1,0-0.1-0.1-0.1h-0.1v0.2h-0.1V40.9z M87.7,41.2h0.1c0.1,0,0.1-0.1,0.1-0.1
				c0-0.1,0-0.1-0.1-0.1h-0.1V41.2z"/>
		</g>
	</g>
	<g>
		<path class="st29" d="M40.6,98.6V60c0-5.5-4.5-10-10-10c-5.5,0-10,4.5-10,10v27.5"/>
		<path class="st22" d="M38.6,60c0,5.5-3.6,4.9-8,4.9s-8,1-8-4.9c0-4.4,3.6-8,8-8S38.6,55.6,38.6,60z"/>
	</g>
	<g>
		<g>
			<path class="st21" d="M36.6,75.1c0,0-0.4,0.6-1.3,1.4c-0.4,0.4-0.9,0.8-1.5,1.1c-0.6,0.4-1.3,0.6-2.1,0.8c-0.4,0.1-0.8,0.1-1.2,0
				c-0.4-0.1-0.8-0.2-1.1-0.3c-0.7-0.3-1.2-0.7-1.6-1.1c-0.8-0.8-1.2-1.4-1.2-1.4s0.5,0.5,1.4,1.2c0.4,0.3,1,0.6,1.6,0.9
				c0.3,0.1,0.6,0.2,1,0.2c0.2,0,0.3,0,0.5,0c0.2,0,0.3,0,0.5,0c0.7-0.1,1.4-0.4,2-0.7c0.6-0.3,1.1-0.6,1.6-1
				C36.1,75.6,36.6,75.1,36.6,75.1z"/>
		</g>
		<g>
			<path class="st21" d="M35.5,79c0,0-0.4,0.6-1.3,1.4c-0.4,0.4-0.9,0.8-1.5,1.1c-0.6,0.4-1.3,0.6-2.1,0.8c-0.4,0.1-0.8,0.1-1.2,0
				c-0.4-0.1-0.8-0.2-1.1-0.3c-0.7-0.3-1.2-0.7-1.6-1.1c-0.8-0.8-1.2-1.4-1.2-1.4s0.5,0.5,1.4,1.2c0.4,0.3,1,0.6,1.6,0.9
				c0.3,0.1,0.6,0.2,1,0.2c0.2,0,0.3,0,0.5,0c0.2,0,0.3,0,0.5,0c0.7-0.1,1.4-0.4,2-0.7c0.6-0.3,1.1-0.6,1.6-1
				C34.9,79.5,35.5,79,35.5,79z"/>
		</g>
	</g>
</g>
<g id="Layer_3">
</g>
<g id="swatches">
</g>
</svg>
