<?xml version="1.0" encoding="utf-8"?>
<!-- Generator: Adobe Illustrator 18.1.0, SVG Export Plug-In . SVG Version: 6.00 Build 0)  -->
<!DOCTYPE svg PUBLIC "-//W3C//DTD SVG 1.1//EN" "http://www.w3.org/Graphics/SVG/1.1/DTD/svg11.dtd">
<svg version="1.1" id="Layer_1" xmlns="http://www.w3.org/2000/svg" xmlns:xlink="http://www.w3.org/1999/xlink" x="0px" y="0px"
	 viewBox="87.5 0 225 225" style="enable-background:new 87.5 0 225 225;" xml:space="preserve">
<style type="text/css">
	.st0{opacity:0.8;}
	.st1{fill:none;}
	.st2{fill:#0857AF;}
</style>
<g class="st0">
	<path class="st1" d="M177.5,71.4L177.5,71.4h7.4l0,0c0.4,0,0.8-0.4,0.9-0.8v-0.1v-0.1V57.1V57v-0.1c-0.1-0.4-0.4-0.7-0.8-0.8
		c-0.1,0-0.1,0-0.1,0c-0.1,0-0.1,0-0.2,0h-7.1c-0.1,0-0.1,0-0.1,0s-0.1,0-0.1,0c-0.4,0.1-0.8,0.4-0.8,0.9l0,0v13.5l0,0
		C176.7,71,177.1,71.4,177.5,71.4z"/>
	<path class="st1" d="M311.5,197.2l-1.6-1.6c-0.5-0.5-1.4-0.5-1.8,0l-1.6,1.6c-0.5,0.5-0.5,1.4,0,1.8l1.6,1.6c0.5,0.5,1.3,0.5,1.8,0
		l1.6-1.6C312,198.5,312,197.7,311.5,197.2z"/>
	<path class="st1" d="M180.1,54.8L180.1,54.8h1.1h0.4l0,0h0.2h0.8h0.1c0.2,0,0.4-0.2,0.4-0.5c0-0.3-0.2-0.5-0.5-0.5l0,0h-0.8h-0.2
		l0,0h-0.4h-1H180c-0.2,0-0.4,0.2-0.4,0.5C179.5,54.6,179.8,54.8,180.1,54.8z"/>
	<path class="st1" d="M181.2,72.1c-0.6,0-1.1,0.4-1.1,1.1s0.4,1.1,1.1,1.1s1.1-0.4,1.1-1.1S181.9,72.1,181.2,72.1z"/>
	<path class="st1" d="M156,221.3c0.1-0.3,0-0.6-0.2-0.8c-0.2-0.2-0.6,0-0.7,0.2l0,0c-0.1,0.3,0,0.6,0.2,0.8
		C155.5,221.6,155.8,221.5,156,221.3z"/>
	<path class="st1" d="M171.9,32.9c0.1-0.1,0.1-0.2,0.1-0.3V30c0-0.1,0-0.2-0.1-0.3l2.3-2.3c0.1-0.1,0.1-0.2,0-0.3
		c-0.1-0.1-0.2-0.1-0.3,0l-2.3,2.3c-0.1-0.1-0.2-0.1-0.3-0.1h-2.1c-0.1,0-0.2,0-0.3,0.1l-2.3-2.3c-0.1-0.1-0.2-0.1-0.3,0
		s-0.1,0.2,0,0.3l2.3,2.3c-0.1,0.1-0.1,0.2-0.1,0.3v2.6c0,0.1,0,0.2,0.1,0.3l-2.3,2.3c-0.1,0.1-0.1,0.2,0,0.3c0.1,0.1,0.2,0.1,0.3,0
		l2.3-2.3c0.1,0.1,0.2,0.1,0.3,0.1h2.2c0.1,0,0.2,0,0.3-0.1l2.3,2.3c0.1,0.1,0.2,0.1,0.3,0c0.1-0.1,0.1-0.2,0-0.3L171.9,32.9z
		 M171.4,32.3c0,0.3-0.2,0.5-0.5,0.5h-1.6c-0.3,0-0.5-0.2-0.5-0.5v-2.1c0-0.3,0.2-0.5,0.5-0.5h1.6c0.3,0,0.5,0.2,0.5,0.5V32.3z"/>
	<path class="st1" d="M155.5,218.9C155.5,218.9,155.5,219,155.5,218.9c0,0.3,0.2,0.6,0.4,0.6c0.3,0,0.5-0.2,0.6-0.5l0,0
		c0.1-1.5-0.2-3.1-1.2-4.3l0,0l0,0c-0.1-0.2-0.5-0.3-0.8-0.2c-0.2,0.2-0.3,0.5-0.1,0.8C155.4,216.5,155.7,217.7,155.5,218.9z"/>
	<path class="st1" d="M200.8,111.9L200.8,111.9h-0.2H192h-0.1h-0.1c-0.7,0.1-1.1,0.6-1.2,1.2v0.1v0.1v2.3v0.1v0.1
		c0,0.7,0.6,1.2,1.3,1.2h8.9c0.7,0,1.3-0.5,1.3-1.2v-0.1v-0.1v-2.3v-0.1v-0.1C202,112.5,201.4,112,200.8,111.9z"/>
	<path class="st1" d="M132.2,136.7L132.2,136.7c0,0.5,0.4,0.8,0.8,0.8h6.6c0.4,0,0.8-0.4,0.8-0.8c0-0.1,0-0.1,0-0.1l0,0l-0.6-4.5
		c-0.1-0.4-0.5-0.7-0.9-0.7c-0.1,0-0.1,0-0.1,0l0,0c-0.8,0.2-1.6,0.2-2.4,0.2c-0.8,0-1.6-0.1-2.3-0.2h-0.1l0,0c-0.1,0-0.1,0-0.1,0
		l0,0c-0.4,0-0.8,0.2-0.9,0.7L132.2,136.7L132.2,136.7z"/>
	<path class="st1" d="M206.2,94.8C206.2,94.7,206.2,94.7,206.2,94.8c0-0.8-0.5-1.3-1.2-1.3h-0.1h-0.1h-17.2h-0.1h-0.1
		c-0.7,0.1-1.1,0.6-1.2,1.2v0.1v0.1v13v0.1v0.1c0,0.7,0.6,1.2,1.3,1.2H205c0.7,0,1.3-0.5,1.3-1.2v-0.1v-0.1L206.2,94.8L206.2,94.8z"
		/>
	<path class="st1" d="M132.5,128.5c0.1-0.3,0.1-0.7-0.2-0.8c-1.3-0.7-2.2-1.9-2.7-3.1l0,0c-0.1-0.3-0.4-0.5-0.8-0.3
		c-0.3,0.1-0.4,0.5-0.4,0.8l0,0l0,0c0.5,1.6,1.7,2.9,3.2,3.8C132,128.9,132.4,128.8,132.5,128.5z"/>
	<path class="st1" d="M179.1,174.2c-0.1-0.1-0.1-0.1-0.3-0.1c-0.1,0-0.2-0.1-0.4-0.1c-0.6,0-1.1,0.4-1.3,0.9l0,0c0,0.1,0,0.1,0,0.1
		c-0.4,1.4-0.8,2.8-1.4,4.1c-0.4,0.8-0.8,1.6-1.1,2.3c-0.3,0.5-0.6,1.1-0.9,1.5c0,0,0,0,0,0.1c-0.1,0.1-0.1,0.3-0.1,0.5
		c0,0.5,0.4,0.9,0.9,0.9h0.1l0,0c0.1,0,0.2,0,0.2,0c1.4-0.3,2.7-1,3.7-2c1.4-1.4,2.3-3.4,2.3-5.5
		C180.9,175.7,180.2,174.7,179.1,174.2z"/>
	<circle class="st1" cx="207.5" cy="157.5" r="1.8"/>
	<path class="st1" d="M207.5,152.3c-2.9,0-5.2,2.3-5.2,5.2s2.3,5.2,5.2,5.2s5.2-2.3,5.2-5.2S210.4,152.3,207.5,152.3z M207.5,161.5
		c-2.2,0-4-1.8-4-4s1.8-4,4-4s4.1,1.8,4.1,4S209.8,161.5,207.5,161.5z"/>
	<path class="st1" d="M169.8,24.5c0.4,0,1.5,0,2-0.1c0.5-0.1,0.7-0.2,0.9-0.4c0.3-0.2,0.5-0.6,0.6-0.7c0.1-0.1,0.1-0.3,0-0.4
		c-0.2-0.2-0.5-0.1-0.5-0.1s-2.6,0-2.8,0s-0.6,0.1-0.8,0.4c-0.1,0.2-0.8,1.5-0.8,1.5l0.4-0.1C168.9,24.7,169.3,24.5,169.8,24.5z"/>
	<circle class="st1" cx="163.9" cy="106.4" r="0.9"/>
	<path class="st1" d="M136.7,37.1L136.7,37.1c1.2,0.1,2.2,0.7,3,1.5l0,0c0.1,0.1,0.4,0.2,0.7,0c0.2-0.2,0.2-0.5,0.1-0.7l0,0
		c-0.9-1-2.2-1.7-3.6-1.8l0,0c-0.2,0-0.5,0.2-0.5,0.5C136.2,36.8,136.5,37.1,136.7,37.1z"/>
	<path class="st1" d="M140.6,40.1L140.6,40.1L140.6,40.1c0.1,0.2,0.4,0.4,0.6,0.3c0.2-0.1,0.4-0.4,0.3-0.6c-0.1-0.2-0.4-0.4-0.6-0.3
		C140.6,39.5,140.5,39.8,140.6,40.1L140.6,40.1z"/>
	<path class="st1" d="M215.5,103.9C215.4,103.9,215.4,103.9,215.5,103.9l-1.1-0.2c-1.4-0.3-2.2-1.7-1.9-3.1l0.5-2.3
		c0-0.1,0.1-0.1,0.1-0.2s0-0.1,0-0.2c0-0.5-0.3-1-0.8-1.1l0,0c-0.1,0-0.1-0.1-0.2-0.1c-0.5-0.2-1.1-0.4-1.7-0.4l0,0h-0.1
		c-0.4,0-0.7,0.3-0.7,0.7v13.4c0,0.3,0.2,0.6,0.5,0.6c0.1,0,0.1,0,0.1,0l0,0c2.2,0.3,3.8,2.1,3.8,4.6v9.1c0,0.6,0.4,1.3,1.1,1.3
		s1.1-0.6,1.1-1.3v-19.3v-0.1v-0.1C216.4,104.5,216,104,215.5,103.9z"/>
	<path class="st1" d="M235.9,100.6h3.1c0.3,0,0.5-0.2,0.6-0.4c-0.1,0-0.1,0-0.2,0h-4c-0.1,0-0.1,0-0.1,0
		C235.5,100.4,235.7,100.6,235.9,100.6z"/>
	<circle class="st1" cx="279.7" cy="35.9" r="1.5"/>
	<circle class="st1" cx="270.3" cy="35.9" r="1.5"/>
	<path class="st1" d="M271.2,80.2c0.8-0.8,0.8-2.1,0-2.9c-0.8-0.8-2.1-0.8-2.9,0c-0.8,0.8-0.8,2.1,0,2.9
		C269.1,81.1,270.4,81.1,271.2,80.2z"/>
	<circle class="st1" cx="274.9" cy="89.2" r="2"/>
	<path class="st1" d="M283.7,31.4h-17.3c-0.4,0-0.6,0.3-0.7,0.6l0,0l0,0v10.8l0,0l0,0c0,0.3,0.3,0.6,0.6,0.6c0,0,0,0,0.1,0
		c0,0,0,0,0.1,0h0.9h0.1h0.1c0.4,0,0.7-0.2,0.8-0.6l0,0l0.8-2l0,0v-0.1c0.1-0.4,0.5-0.6,0.9-0.6h5h5c0.4,0,0.8,0.2,0.9,0.6v0.1l0,0
		l0.8,2l0,0c0.2,0.3,0.5,0.5,0.8,0.6h0.1h0.1h0.9c0,0,0,0,0.1,0c0,0,0,0,0.1,0c0.3,0,0.6-0.3,0.6-0.6l0,0l0,0V32.1l0,0l0,0
		C284.3,31.7,284,31.4,283.7,31.4z M283,38.4C283,38.5,283,38.5,283,38.4c0,0.4-0.3,0.6-0.6,0.7c0,0,0,0-0.1,0c0,0,0,0-0.1,0h-2.2
		H275h-5.1h-2.2c0,0,0,0-0.1,0c0,0,0,0-0.1,0c-0.3,0-0.6-0.3-0.6-0.6l0,0l0,0v-5l0,0l0,0c0-0.4,0.3-0.6,0.7-0.6h14.8
		c0.4,0,0.6,0.3,0.7,0.6l0,0l0,0L283,38.4L283,38.4z"/>
	<path class="st1" d="M266.8,88.1c0.9,0.4,1.2-0.2,1.4-0.4c0.1-0.3,0.3-0.3,0.6-0.2c0.2,0.2,0.8,0.7,1.2,0.4c0.5-0.4,0.6-1,0.5-1.4
		c-0.1-0.4-0.6-0.5-0.9-0.6c-0.4-0.1-0.4-0.2-0.3-0.7s-0.1-1.1-0.8-1.3c-0.8-0.1-2,0.2-2.5,1.6C265.5,86.6,265.9,87.7,266.8,88.1z"
		/>
	<path class="st1" d="M115.1,180.3c-0.3-0.2-0.4-0.6-0.4-1V177v-0.6v-0.1V176v-0.3v-0.2c-0.1-0.5-0.4-0.8-0.8-0.8
		c-0.5,0-0.8,0.4-0.8,0.8l0,0v0.4v0.3v0.1v0.6v2.2c0,0.4-0.1,0.8-0.4,1.1l-0.1,0.1c-0.4,0.4-0.8,1-0.8,1.7c0,1.2,1,2.2,2.2,2.2
		c1.2,0,2.2-1,2.2-2.2c0-0.7-0.3-1.3-0.8-1.7C115.1,180.3,115.1,180.3,115.1,180.3z"/>
	<path class="st1" d="M290.4,170.8l-6.2-6.2l-9.8,9.8l6.2,6.2L290.4,170.8z M284.2,166.6l4.3,4.3l-7.8,7.8l-4.3-4.3L284.2,166.6z"/>
	<path class="st1" d="M107.2,172.3c0.1,0,0.1,0,0.2-0.1l0,0l0,0c1.3-1.5,3.2-2.4,5.3-2.6c2.6-0.1,4.7,1,6.2,2.9c0,0,0,0.1,0.1,0.1
		c0.1,0.1,0.2,0.1,0.2,0.1c0.1,0,0.1,0,0.2-0.1c0,0,0,0,0.1,0l0.8-0.5c0,0,0.1,0,0.1-0.1c0.1-0.1,0.1-0.1,0.1-0.2
		c0-0.1,0-0.1-0.1-0.2c0,0,0,0,0-0.1c-1.6-2.2-4.1-3.4-7-3.3c-2.6,0.2-4.9,1.6-6.2,3.7c0,0,0,0.1,0,0.1
		C107,172.3,107.1,172.4,107.2,172.3z"/>
	<path class="st1" d="M207.9,16.9c0.8,0,1.6-0.1,2.3-0.2l0,0h0.1c0.5-0.2,0.8-0.6,0.8-1.1c0-0.5-0.4-1-0.8-1c-0.1,0-0.1-0.1-0.2-0.1
		c-4.9-1-8.9-4.9-9.9-9.8c0-0.1,0-0.2-0.1-0.4c-0.2-0.4-0.6-0.8-1.1-0.8c-0.5,0-0.9,0.3-1,0.8c0,0.1,0,0.1-0.1,0.2
		c-0.1,0.8-0.2,1.5-0.2,2.3C197.7,12.3,202.2,16.9,207.9,16.9z"/>
	<path class="st1" d="M271.5,130.4c0-0.9-0.8-1.7-1.7-1.7h-1.6c-0.6,0-1.1-0.5-1.1-1.1l0,0c0-0.6,0.5-1.1,1.1-1.1h1.6
		c0.9,0,1.7-0.8,1.7-1.7c0-0.1,0-0.3-0.1-0.4c0-0.1,0-0.1,0-0.1c-0.5-1.9-1.6-3.6-3-5.1c-1.4-1.4-3.1-2.5-5.1-3l0,0
		c-0.1-0.1-0.3-0.1-0.5-0.1c-0.9,0-1.7,0.8-1.7,1.7v1.6c0,0.6-0.5,1.1-1.1,1.1h0.1c-0.6,0-1.1-0.5-1.1-1.1v-1.6
		c0-0.9-0.8-1.7-1.7-1.7c-0.1,0-0.4,0-0.5,0.1l0,0c-1.9,0.5-3.7,1.6-5.1,3c-1.4,1.4-2.5,3.2-3,5.2l0,0c0,0.1-0.1,0.3-0.1,0.4
		c0,0.9,0.8,1.7,1.7,1.7h1.6c0.6,0,1.1,0.5,1.1,1.1v0.1c0,0.6-0.5,1.1-1.1,1.1h-1.6c-0.9,0-1.7,0.8-1.7,1.7c0,0.2,0,0.4,0.1,0.5l0,0
		c0.5,1.9,1.6,3.7,3,5.1c1.4,1.4,3.2,2.5,5.1,3h0.1c0.1,0,0.3,0.1,0.5,0.1c0.9,0,1.7-0.8,1.7-1.7v-1.6c0-0.6,0.5-1.1,1.1-1.1h0.1
		c0.6,0,1.1,0.5,1.1,1.1v1.6c0,0.9,0.8,1.7,1.7,1.7c0.1,0,0.3,0,0.4-0.1c0.1,0,0.1,0,0.1,0c1.9-0.5,3.6-1.6,5-3
		c1.4-1.4,2.5-3.1,3-5.1C271.5,130.6,271.5,130.5,271.5,130.4z"/>
	<rect x="236.5" y="87.5" class="st1" width="3.1" height="1.8"/>
	<path class="st1" d="M250,171.9c0.2-0.1,0.3-0.2,0.5-0.4c1-1,1.3-2.7,0.5-3.9c-0.1-0.2-0.3-0.5-0.5-0.7c-0.2-0.2-0.4-0.4-0.6-0.5
		c-1.3-0.8-2.9-0.6-4,0.5c-0.1,0.1-0.3,0.3-0.4,0.4c-0.9,1.3-0.8,3,0.4,4.2C247,172.6,248.8,172.7,250,171.9z"/>
	<path class="st1" d="M236.7,91.4c0,0,2.2,0.8,2.6,4.5l0.7,3.7c0,0,1.3-0.4,1.5-1.4V92c0,0-0.4-1.8-1.9-1.8h-2.9
		C236.7,90.1,235.2,91,236.7,91.4z"/>
	<path class="st2" d="M96.7,67.5c-0.1,0-0.2,0-0.2,0l-5,0.6l0,0h-0.1c-0.8,0.1-1.4,0.7-1.6,1.4v0.1v0.1l0,0L89,72.1v0.1l0,0
		c-0.1,0.4,0.2,0.8,0.5,0.8c0.4,0.1,0.7-0.2,0.8-0.5v-0.1l0,0l0.6-2.3l0,0v-0.1c0.1-0.2,0.3-0.4,0.5-0.4l0,0h0.1l5.1-0.7
		c0.2-0.1,0.4-0.3,0.5-0.5C97.3,67.9,97,67.6,96.7,67.5z"/>
	<path class="st2" d="M88.1,75.3h1.3h0.2h2l0,0c0.4,0,0.8,0.4,0.8,0.8c0,0.1,0,0.2-0.1,0.3c0,0.1-0.1,0.1-0.1,0.1
		c-0.4,0.5-0.6,1.2-0.8,1.8c-0.1,0.2-0.1,0.4-0.1,0.6v0.2L90.4,93l-0.2,2.1v0.1c0,0.1,0,0.1,0,0.2c-0.1,0.3-0.4,0.6-0.8,0.6h-2v1.6
		h2c1.1,0,2.1-0.8,2.2-2v-0.4L92.6,83l0.2-3.8c0-0.1,0-0.1,0-0.2c0.1-0.6,0.2-1.2,0.5-1.6c0.1-0.1,0.1-0.1,0.2-0.1
		c0.2-0.3,0.3-0.8,0.3-1.1s-0.1-0.8-0.3-1.1c-0.1-0.2-0.2-0.4-0.4-0.5c-0.4-0.4-1-0.7-1.7-0.7H90h-1.4h-1.1v1.6L88.1,75.3L88.1,75.3
		z"/>
	<path class="st2" d="M88.2,94.4c0.4,0,0.7-0.4,0.7-0.8l0,0l0.1-0.7l0.6-9.3l0,0v-0.1c0-0.5-0.4-0.8-0.8-0.8l0,0l0,0
		c-0.1,0-0.1,0-0.1,0c-0.4,0-0.7,0.1-1,0h-0.1v11.6H88h0.2V94.4z"/>
	<path class="st2" d="M88.6,76.2c-0.4-0.1-0.7,0.2-0.8,0.5v0.1c0,0.1,0,0.1,0,0.2l0,0l-0.2,0.8v4.2c0.2-0.1,0.4-0.2,0.4-0.4l0.1-0.2
		l0,0l1.1-4.2V77v-0.1C89.2,76.6,88.9,76.2,88.6,76.2z"/>
	<path class="st2" d="M303.4,74.5c-0.1,0.1-0.3,0.3-0.4,0.5c-0.1,0.3-0.3,0.7-0.3,1.1s0.1,0.8,0.3,1.1c0.1,0.1,0.1,0.1,0.2,0.2
		c0.3,0.5,0.5,1,0.5,1.6c0,0.1,0,0.1,0,0.2l0.2,3.8l0.8,12.1v0.3c0.1,1.1,1.1,2,2.2,2h5.4V96h-0.1h-3.1H307c-0.4,0-0.7-0.2-0.8-0.6
		c0-0.1,0-0.1,0-0.1c0,0,0,0,0-0.1l-0.2-2.1l-0.9-13.9V79c0-0.2-0.1-0.4-0.1-0.6c-0.2-0.7-0.4-1.3-0.8-1.8c0-0.1-0.1-0.1-0.1-0.2
		c-0.1-0.1-0.1-0.2-0.1-0.3c0-0.4,0.3-0.8,0.8-0.8l0,0h2.2h5.2v-1.6H305C304.4,73.7,303.9,74,303.4,74.5z"/>
	<path class="st2" d="M307.8,82.3L307.8,82.3c-0.4,0.1-0.7,0.4-0.7,0.8c0,0,0,0,0,0.1l0.7,9.9l0.1,0.7l0,0c0,0.4,0.3,0.8,0.7,0.8
		h0.1h0.7h3.1h0.1V82.9c-0.5,0-0.9-0.2-1.4-0.2C310.1,82.4,309,82,307.8,82.3z"/>
	<path class="st2" d="M312.1,81.8c0.2,0,0.2,0,0.4,0v-4.2l-0.9,3.4l0,0v0.1C311.5,81.4,311.8,81.8,312.1,81.8z"/>
	<path class="st2" d="M91.8,220.7l1-1l-5.3-5.3v4.9l1.3,1.4C89.7,221.5,91,221.5,91.8,220.7z"/>
	<path class="st2" d="M101.9,210.6c0.8-0.8,0.8-2.2,0-3.1l-14.4-14.3v16.3l7.7,7.7L101.9,210.6z"/>
	<path class="st2" d="M87.5,28.1c0.4,1.4,1.5,2.4,2.8,3c0.1,0,0.1,0,0.2,0.1l0,0c0.3,0.2,0.4,0.4,0.4,0.8c0,0,0,0,0,0.1
		c-0.2,2.8-0.3,7.5-0.5,11.5c-0.2,2.8-0.2,5.2-0.3,6.4V50c0,0.6,0.3,1.3,0.8,1.7c0.4,0.4,1.1,0.8,1.8,0.8l0,0l0,0
		c0.7,0,1.3-0.3,1.8-0.8c0.4-0.4,0.8-1.1,0.8-1.7v-0.1c-0.2-1.2-0.3-3.6-0.4-6.4c-0.2-4-0.5-8.8-0.5-11.5l0,0c0,0,0,0,0-0.1
		c0-0.4,0.2-0.7,0.4-0.8c0.1,0,0.1-0.1,0.2-0.1l0,0c1.8-0.9,3.1-2.7,3.1-4.9c0-3.6-0.4-7.1-1.1-10.5l0,0v-0.1
		c-0.1-0.3-0.4-0.5-0.8-0.5s-0.8,0.3-0.8,0.8c0,0,0,0.1,0,0.2c0,0.5,0.1,2.7,0.2,5.9c0,0.9,0,2,0,3.1c0,0.5-0.5,0.9-0.9,0.9
		s-0.9-0.4-0.9-0.8v-0.1l0,0l-0.2-4l-0.2-5.2c0-0.4-0.3-0.8-0.8-0.8c-0.4,0-0.8,0.3-0.8,0.8l-0.2,5.2l-0.2,3.8l0,0v0.1l0,0
		c-0.1,0.4-0.5,0.8-0.9,0.8c-0.5,0-0.9-0.4-0.9-0.9c0-1,0-2.1,0-3c0.1-3.1,0.2-5.2,0.2-5.8c0-0.1,0-0.2,0-0.2c0-0.4-0.4-0.8-0.8-0.8
		s-0.6,0.2-0.8,0.5l0,0v0.1c-0.4,1.6-0.6,3.2-0.8,4.9C87.5,20.5,87.5,28.1,87.5,28.1z"/>
	<path class="st2" d="M312.2,26.2c0,0.7,0.1,1.3,0.3,1.8v-7.5C312.3,22.4,312.2,24.3,312.2,26.2z"/>
	<path class="st2" d="M307.4,15c-0.2,0-0.5,0.1-0.5,0.2l0,0c-1.8,1.9-4.8,6.8-4.8,18c0,3.3,1.7,3.8,1.6,6.3l0,0
		c-0.1,4-0.5,8.7-0.7,10.4v0.1c-0.1,1.3,1.1,2.5,2.5,2.5l0,0l0,0c1.4,0,2.6-1.2,2.6-2.5v-0.1c0,0,0-20.3,0-21.2v-13
		C308.2,15.3,307.9,15,307.4,15z"/>
	<path class="st2" d="M133.2,14.2l4.1-4c0.4-0.5,0.4-1.2,0-1.7l-2-2c-0.5-0.5-1.3-0.5-1.7,0l-4.1,4c-1.1,1-1.1,2.7,0,3.7
		C130.6,15.2,132.2,15.2,133.2,14.2z"/>
	<path class="st2" d="M133.8,1.8L142,10c1.1,1.1,2.7,1.1,3.7,0l10-10H133C133,0.7,133.2,1.3,133.8,1.8z"/>
	<path class="st2" d="M156.3,224.4c3.3-3.3,3.3-8.6,0-11.9c-3.3-3.3-8.6-3.3-11.9,0l-10.6,10.6c-0.5,0.5-0.8,1.2-0.8,2h22.7
		L156.3,224.4z M154.7,214.6c0.2-0.2,0.6-0.2,0.8,0.1l0,0l0,0c1,1.3,1.4,2.9,1.2,4.4l0,0c0,0.3-0.3,0.5-0.6,0.4
		c-0.3,0-0.5-0.3-0.5-0.6l0,0c0.2-1.3-0.1-2.5-1-3.6C154.4,215.1,154.5,214.7,154.7,214.6z M155,220.8L155,220.8
		c0.1-0.3,0.4-0.4,0.8-0.2c0.3,0.1,0.4,0.4,0.2,0.8c-0.1,0.2-0.4,0.4-0.8,0.2C155,221.4,154.9,221.1,155,220.8z"/>
	<path class="st2" d="M113.8,187.5c6.2,0,11.2-5,11.2-11.2s-5-11.2-11.2-11.2s-11.2,5-11.2,11.2S107.5,187.5,113.8,187.5z
		 M113.8,184.2c-1.2,0-2.2-1-2.2-2.2c0-0.7,0.3-1.3,0.8-1.6l0.1-0.1c0.3-0.2,0.4-0.6,0.4-1V177v-0.6v-0.1V176v-0.4l0,0
		c0-0.4,0.4-0.8,0.8-0.8s0.8,0.3,0.8,0.8v0.2v0.3v0.3v0.1v0.6v2.2c0,0.4,0.2,0.8,0.5,1l0.1,0.1c0.4,0.4,0.8,1,0.8,1.6
		C115.9,183.2,114.9,184.2,113.8,184.2z M107,172c1.3-2.1,3.6-3.5,6.2-3.7c2.8-0.1,5.4,1.1,7,3.3c0,0,0,0,0,0.1s0.1,0.1,0.1,0.1
		c0,0.1,0,0.2-0.1,0.2c0,0-0.1,0-0.1,0.1l-0.8,0.5c0,0,0,0-0.1,0c-0.1,0-0.1,0.1-0.2,0.1c-0.1,0-0.2,0-0.2-0.1c0,0,0-0.1-0.1-0.1
		c-1.5-1.9-3.5-3.1-6.2-2.9c-2.2,0.1-4,1-5.3,2.5l0,0l0,0c0,0-0.1,0.1-0.2,0.1c-0.1,0-0.2-0.1-0.2-0.1C106.9,172.1,107,172,107,172z
		"/>
	<path class="st2" d="M192.1,7c0,8.5,6.9,15.5,15.5,15.5c6.5,0,12.1-4,14.4-9.8c0.7-1.7,1-3.6,1-5.6c0-0.2,0-0.3,0-0.4
		c0-2.2-0.4-4.5-1-6.7h-28.9C192.4,2.3,192.1,4.6,192.1,7z M198,4.4c0-0.1,0-0.1,0.1-0.2c0.2-0.4,0.6-0.8,1.1-0.8
		c0.5,0,0.9,0.3,1,0.8c0.1,0.1,0.1,0.2,0.1,0.4c1,5,4.9,8.9,9.9,9.8c0.1,0,0.1,0,0.2,0.1c0.4,0.2,0.8,0.6,0.8,1.1c0,0.5-0.4,1-0.8,1
		h-0.1l0,0c-0.8,0.2-1.5,0.2-2.3,0.2c-5.6,0-10.2-4.6-10.2-10.2C197.7,5.9,197.8,5.1,198,4.4z"/>
	<path class="st2" d="M216.7,213.3c-2.9-4.6-6-8.2-7.8-10.1l-0.1-0.1l0,0c-0.4-0.4-0.8-0.5-1.4-0.5s-1,0.2-1.4,0.5l0,0l-0.1,0.1
		c-3.1,3.3-10.4,11.9-13,21.8H222C220.9,220.7,218.9,216.8,216.7,213.3z"/>
	<path class="st2" d="M277.1,222.5l-4.6-5.6c-0.3-0.4-0.8-0.4-1.2-0.1c-0.1,0.1-0.1,0.2-0.2,0.2l0,0c-1,1.9-2.6,3.8-4.7,5.5
		c-1,0.9-2.2,1.7-3.2,2.2h15.4C278.2,224.1,277.8,223.3,277.1,222.5z"/>
	<path class="st2" d="M262.4,216.9l2.5,3l0.1,0.1c0.5,0.5,1.2,0.5,1.7,0.1l0.1-0.1l0,0c1.4-1.3,2.3-2.8,2.9-4c0-0.1,0.1-0.2,0.1-0.2
		c0.2-0.6,0.1-1.3-0.3-1.9c-0.1-0.1-0.2-0.2-0.2-0.2l0,0c-0.1-0.1-0.1-0.2-0.2-0.2c-1.2-0.8-2.6-1.3-4-1.5c-1.5-0.2-3,0.2-4.4,0.8
		l0,0l0,0c-0.1,0-0.1,0.1-0.1,0.1l0,0c-0.5,0.2-1.1,0.1-1.4-0.4c0,0,0-0.1-0.1-0.1c-0.1-0.1-0.1-0.1-0.2-0.1c-1-1.7-1.3-3.3-1.3-5
		l0,0c0-0.1,0-0.1,0-0.1c0-0.5-0.4-0.8-0.8-0.8c-0.5,0-0.8,0.3-0.8,0.7c0,0.1,0,0.1,0,0.2l0,0c-0.2,2.2,0.4,4.5,1.8,6.6
		c0,0,0,0.1,0.1,0.1l0,0c0.2,0.5,0.2,1-0.1,1.3c0,0.1-0.1,0.1-0.1,0.1l0,0c-0.1,0.1-0.1,0.2-0.1,0.2c-1.8,2.5-2.1,5.8-0.8,8.5
		c0,0,0,0.1,0.1,0.1l0,0c0.1,0.1,0.1,0.2,0.2,0.3c0.5,0.5,1.2,0.8,1.9,0.6c0.1,0,0.1,0,0.1,0l0,0c1.4-0.4,3-1.1,4.6-2.2l0.1-0.1
		c0.5-0.5,0.6-1.2,0.2-1.7l-0.1-0.2l-2.6-3c-0.2-0.3-0.2-0.8,0.1-1C261.6,216.5,262.1,216.6,262.4,216.9z"/>
	<path class="st2" d="M304,120.7c0-0.4-0.3-0.7-0.7-0.7h-5.2c-0.4,0-0.7,0.3-0.7,0.7v2.7h3.2l3.3,15.1l0.3,1.6v2.5
		c0,0.4,0.3,0.7,0.7,0.7h0.8h6.7V140h-3.8c-2,0-2-0.8-0.4-1.2l4.1-1.2v-14.1H304V120.7z"/>
	<circle class="st2" cx="305.8" cy="146.7" r="3.3"/>
	<path class="st2" d="M87.5,137.6l14.3-4.1c0.4-0.1,0.7-0.5,0.7-0.8v-9.1h-15V137.6z"/>
	<path class="st2" d="M102.5,142.5V140h-15v3.1h10h4.3C102.2,143.2,102.5,142.9,102.5,142.5z"/>
	<circle class="st2" cx="97.5" cy="146.7" r="3.3"/>
	<path class="st2" d="M219,124.6v-19.9v-1.3c0-0.1,0-0.2,0-0.2c-0.1-0.5-0.3-0.8-0.4-1.4v-0.1c-0.5-2.9-2.2-5.2-4.7-6.5
		c-1-0.5-2.2-0.9-3.4-1l0,0c-0.1,0-0.1,0-0.1,0c-0.3-0.1-0.5-0.3-0.5-0.6v-0.8c0-1.6-1.3-2.9-2.9-2.9h-21.2c-1.6,0-2.9,1.3-2.9,2.9
		v38c0,0.5-0.3,1-0.8,1.2l0,0c0,0-0.1,0-0.1,0.1l0,0c-0.1,0.1-0.3,0.1-0.4,0.3c-0.3,0.3-0.4,0.7-0.4,1c0,0.8,0.7,1.5,1.5,1.5h3.1
		H207h3.1c0.8,0,1.5-0.7,1.5-1.5c0-0.6-0.4-1.1-0.9-1.4l0,0c0,0-0.1,0-0.1-0.1l0,0c-0.5-0.2-0.8-0.7-0.8-1.2v-16.7
		c0-0.4,0.3-0.7,0.7-0.7c0.1,0,0.1,0,0.2,0l0,0c0.1,0,0.1,0.1,0.1,0.1l0,0c0.7,0.4,0.8,1.2,0.8,1.9v9.1c0,2.2,1.6,3.8,3.7,3.8
		C217.3,128.4,219,126.8,219,124.6z M202,113.2L202,113.2v2.3v0.1v0.1c0,0.7-0.6,1.2-1.3,1.2h-8.8c-0.7,0-1.3-0.5-1.3-1.2v-0.1v-0.1
		v-2.3v-0.1v-0.1c0-0.7,0.5-1.2,1.2-1.2h0.1h0.1h8.7h0.1h0.1C201.4,112,202,112.5,202,113.2C202,113.2,202,113.2,202,113.2z
		 M206.2,107.9L206.2,107.9c0,0.8-0.6,1.3-1.3,1.3h-17.4c-0.7,0-1.3-0.5-1.3-1.2v-0.1v-0.1v-13v-0.1v-0.1c0-0.7,0.5-1.2,1.2-1.2h0.1
		h0.1h17.2h0.1h0.1c0.7,0.1,1.1,0.6,1.2,1.2v0.1v0.1L206.2,107.9C206.2,107.9,206.2,107.9,206.2,107.9z M216.4,105.2v19.3
		c0,0.6-0.4,1.3-1.1,1.3s-1.1-0.6-1.1-1.3v-9.2c0-2.5-1.5-4.3-3.8-4.6l0,0c-0.1,0-0.1,0-0.1,0c-0.3-0.1-0.5-0.3-0.5-0.6V96.8
		c0-0.4,0.3-0.7,0.7-0.7h0.1l0,0c0.6,0.1,1.2,0.2,1.7,0.4c0.1,0,0.1,0.1,0.2,0.1l0,0c0.4,0.2,0.8,0.7,0.8,1.1c0,0.1,0,0.2,0,0.2
		c0,0.1,0,0.1-0.1,0.2l-0.5,2.3c-0.3,1.4,0.5,2.8,2,3.1l1,0.2h0.1c0.5,0.2,0.9,0.6,1,1.2v0.1C216.4,105.1,216.4,105.2,216.4,105.2z"
		/>
	<polygon class="st2" points="214.7,56.2 212.8,59.4 216.4,59.6 215.5,63.2 219.1,62.3 219.4,66 222.5,64.1 223.9,67.5 226.2,64.6 
		228.6,67.5 230,64.1 233.1,66 233.4,62.3 237,63.2 236.1,59.6 239.8,59.4 237.8,56.2 241.2,54.9 238.4,52.5 241.2,50.1 237.8,48.8 
		239.8,45.6 236.1,45.4 237,41.8 233.4,42.7 233.1,39 230,40.9 228.6,37.5 226.2,40.3 223.9,37.5 222.5,40.9 219.4,39 219.1,42.7 
		215.5,41.8 216.4,45.4 212.8,45.6 214.7,48.8 211.2,50.1 214.1,52.5 211.2,54.9 	"/>
	<path class="st2" d="M143.6,48.4c0-0.1,0.1-0.1,0.1-0.3c0-0.3-0.1-0.6-0.4-0.8c-0.1-0.1-0.2-0.1-0.4-0.1h-13.1
		c-0.2,0-0.3,0-0.4,0.1c-0.2,0.2-0.5,0.5-0.5,0.8c0,0.1,0,0.2,0.1,0.3l6.5,14.8c0,0,0,0,0,0.1c0.1,0.3,0.4,0.5,0.8,0.5
		c0.4,0,0.6-0.2,0.8-0.5c0,0,0,0,0-0.1L143.6,48.4C143.6,48.5,143.6,48.4,143.6,48.4z"/>
	<path class="st2" d="M127.7,41.3c-0.1,0.4-0.2,0.6-0.5,0.8c-0.1,0-0.1,0.1-0.1,0.1c-0.5,0.3-0.8,0.9-0.8,1.6c0,1.1,0.8,1.9,1.9,1.9
		c0.1,0,0.2,0,0.2,0l0,0h15.9l0,0c0.1,0,0.1,0,0.2,0c1.1,0,1.9-0.8,1.9-1.9c0-0.7-0.4-1.2-0.8-1.6c-0.1,0-0.1-0.1-0.1-0.1
		c-0.3-0.2-0.5-0.5-0.5-0.8l0,0v-0.1c-0.5-4.2-4.1-7.5-8.6-7.5C131.9,33.8,128.3,37,127.7,41.3C127.7,41.2,127.7,41.3,127.7,41.3z
		 M140.9,39.4c0.2-0.1,0.5,0,0.6,0.3c0.1,0.2,0,0.5-0.3,0.6c-0.2,0.1-0.5,0-0.6-0.2l0,0l0,0l0,0C140.5,39.8,140.6,39.5,140.9,39.4z
		 M136.9,36.2L136.9,36.2c1.4,0.2,2.7,0.8,3.6,1.8l0,0c0.1,0.2,0.1,0.5-0.1,0.7c-0.2,0.1-0.4,0.1-0.7,0l0,0c-0.8-0.8-1.8-1.4-3-1.5
		l0,0c-0.2,0-0.5-0.2-0.5-0.5C136.3,36.3,136.6,36.1,136.9,36.2z"/>
	<path class="st2" d="M233.5,198c1,1,2.6,1,3.6,0l0,0l0,0l17.6-17.6l0,0l0.2-0.1l0,0c0.7-0.7,1-1.6,1-2.5l0,0l0.3-8.4V169
		c0-0.9-0.4-1.9-1.1-2.6l-4.1-4.1c-0.8-0.8-1.7-1.1-2.7-1l0,0h-0.4l-8.1,0.6l0,0h-0.1l0,0c-0.8,0.1-1.4,0.4-2,0.8l-0.5,0.5
		l-17.4,17.2l-0.2,0.2c-0.9,1-0.8,2.5,0.2,3.5L233.5,198z M245.5,167.3c0.1-0.2,0.2-0.3,0.4-0.5c1-1,2.8-1.3,4-0.5
		c0.2,0.2,0.5,0.3,0.6,0.5c0.2,0.2,0.4,0.5,0.5,0.7c0.8,1.3,0.5,2.9-0.5,3.9c-0.1,0.1-0.3,0.3-0.4,0.4c-1.3,0.9-3,0.8-4.2-0.4
		C244.7,170.4,244.6,168.6,245.5,167.3z"/>
	<path class="st2" d="M142.2,193.3C142.2,193.3,142.2,193.3,142.2,193.3c2.1,0.7,4.3,1.1,6.4,1.6c0.1,0,0.1,0,0.2,0.1
		c0.3,0.1,0.6,0.1,0.9,0.1h9h2.8h9c0.3,0,0.6,0,0.9-0.1c0.1,0,0.1,0,0.2-0.1c2.2-0.4,4.3-0.9,6.4-1.6l0,0c0.4-0.2,0.6-0.4,0.6-0.8
		s-0.2-0.8-0.6-0.8l0,0c-0.1-0.1-0.4-0.1-0.5-0.1h-0.4h-1.5H166h-0.8h-10.5H154h-9.6h-1.5h-0.5c-0.1,0-0.2,0-0.4,0.1
		c-0.1,0-0.1,0-0.1,0l0,0c-0.4,0.1-0.6,0.5-0.6,0.8C141.6,192.9,141.8,193.2,142.2,193.3z"/>
	<path class="st2" d="M183.4,177.1c0-0.1,0-0.1,0-0.2s0-0.1,0-0.1c-0.1-2.7-2.1-4.9-4.6-5.3c-0.2,0-0.2-0.1-0.3-0.2
		c-0.1-0.1-0.2-0.1-0.3-0.3c-0.1-0.2-0.2-0.4-0.2-0.6c0-1-0.8-1.8-1.8-1.8h-9h-22.9c-1,0-1.8,0.8-1.8,1.8l0,0c0,0.1,0,0.1,0,0.2
		c0.4,4.9,2,9.4,4.7,13.2c1.3,1.8,2.8,3.5,4.4,5l0,0c0.5,0.4,1.2,0.8,2,0.8h1.8h9.8h1.8c0.7,0,1.2-0.2,1.7-0.6l0,0
		c0.1-0.1,0.2-0.1,0.3-0.3c0.5-0.5,1.1-0.9,1.5-1.4l0,0c0.2-0.2,0.6-0.4,1-0.4l0,0c0.1,0,0.2,0,0.4,0.1c0.4,0.1,1,0.1,1.5,0.1
		c0.9,0,1.7-0.1,2.6-0.3C180.1,185.7,183.4,181.8,183.4,177.1z M174.8,184.4c-0.1,0-0.1,0-0.1,0l0,0h-0.1c-0.5,0-0.9-0.4-0.9-0.9
		c0-0.1,0.1-0.3,0.2-0.4V183c0.3-0.5,0.6-1,0.9-1.5c0.4-0.8,0.8-1.5,1.1-2.3c0.5-1.3,1-2.7,1.4-4.1c0-0.1,0-0.1,0-0.1l0,0
		c0.1-0.5,0.7-0.9,1.3-0.9c0.1,0,0.3,0,0.4,0.1c0.1,0,0.2,0.1,0.3,0.1c1,0.5,1.7,1.5,1.7,2.7c0,2.2-0.9,4.1-2.3,5.5
		C177.5,183.4,176.2,184.1,174.8,184.4z"/>
	<path class="st2" d="M162.9,165.6L162.9,165.6c-0.1,0.1-0.1,0.1-0.1,0.2c0,0.2,0.1,0.4,0.4,0.4c0.1,0,0.1,0,0.2-0.1l0.1-0.1
		c1.6-1.3,3.1-3.4,3.1-5.7c0-3.2-4.1-4.7-4.1-7.4c0-1,0.1-1.8,0.4-2.4c0-0.1,0-0.1,0.1-0.1v-0.1c0-0.2-0.1-0.4-0.4-0.4
		c-0.1,0-0.1,0-0.2,0.1l-0.1,0.1c-1.1,1-2.5,2.7-2.5,5c0,4,4,4.1,4,7.1C163.8,163.6,163.3,164.8,162.9,165.6L162.9,165.6z"/>
	<path class="st2" d="M157.2,164.2C157.2,164.2,157.2,164.2,157.2,164.2c0,0.3,0.1,0.5,0.4,0.5c0.1,0,0.2,0,0.2-0.1l0,0
		c0.8-0.8,1.3-1.9,1.3-3.1c0-2-2.5-3-2.5-4.6c0-0.4,0.1-0.8,0.1-1.1l0,0v-0.1c0-0.2-0.1-0.4-0.4-0.4c-0.1,0-0.2,0.1-0.2,0.1
		s0,0-0.1,0.1c-0.6,0.7-1.1,1.6-1.1,2.8c0,2.5,2.6,2.5,2.6,4.5C157.5,163.3,157.4,163.7,157.2,164.2
		C157.2,164.1,157.2,164.1,157.2,164.2z"/>
	<path class="st2" d="M275,127.6L275,127.6C275,127.5,275,127.5,275,127.6C275,127.5,275,127.5,275,127.6L275,127.6
		c0-8.3-6.8-15-15-15s-15,6.8-15,15l0,0c0,8.3,6.8,15,15,15C268.2,142.5,275,135.8,275,127.6z M263.4,138.9c-0.1,0-0.1,0-0.1,0
		c-0.1,0-0.3,0.1-0.4,0.1c-0.9,0-1.7-0.8-1.7-1.7v-1.6c0-0.6-0.5-1.1-1.1-1.1l0,0c-0.6,0-1.1,0.5-1.1,1.1v1.6c0,0.9-0.8,1.7-1.7,1.7
		c-0.1,0-0.3,0-0.5-0.1h-0.1c-1.9-0.5-3.7-1.6-5.1-3c-1.4-1.4-2.5-3.1-3-5.1l0,0c-0.1-0.1-0.1-0.3-0.1-0.5c0-0.9,0.8-1.7,1.7-1.7
		h1.6c0.6,0,1.1-0.5,1.1-1.1v0.1c0-0.6-0.5-1.1-1.1-1.1h-1.6c-0.9,0-1.7-0.8-1.7-1.7c0-0.1,0-0.3,0.1-0.4l0,0c0.5-2,1.6-3.7,3-5.2
		c1.4-1.4,3.1-2.5,5.1-3l0,0c0.1-0.1,0.3-0.1,0.5-0.1c0.9,0,1.7,0.8,1.7,1.7v1.6c0,0.6,0.5,1.1,1.1,1.1h0.1c0.6,0,1.1-0.5,1.1-1.1
		v-1.6c0-0.9,0.8-1.7,1.7-1.7c0.1,0,0.4,0,0.5,0.1l0,0c1.9,0.5,3.7,1.6,5.1,3c1.4,1.4,2.5,3.2,3,5.1c0,0,0,0.1,0,0.1
		c0,0.2,0.1,0.3,0.1,0.4c0,0.9-0.8,1.7-1.7,1.7h-1.6c-0.6,0-1.1,0.5-1.1,1.1v0.1c0,0.6,0.5,1.1,1.1,1.1h1.6c0.9,0,1.7,0.8,1.7,1.7
		c0,0.2,0,0.4-0.1,0.5c-0.5,1.9-1.6,3.7-3,5.1C267,137.3,265.2,138.4,263.4,138.9z"/>
	<path class="st2" d="M278.5,183.4c0.5,0.5,1.3,0.5,1.7,0l13.2-13.2c0.5-0.4,0.5-1.3,0-1.7l-1.8-1.8c-0.4,0.2-0.8,0.3-1.1,0.3
		c-1.4,0-2.4-1.1-2.4-2.4c0-0.4,0.1-0.8,0.3-1.1l-1.8-1.8c-0.5-0.5-1.3-0.5-1.7,0l-13.3,13.1c-0.5,0.5-0.5,1.3,0,1.7l1.8,1.8
		c0.4-0.2,0.8-0.3,1.1-0.3c1.4,0,2.4,1,2.4,2.4c0,0.5-0.1,0.8-0.3,1.1L278.5,183.4z M274.5,174.4l9.8-9.8l6.2,6.2l-9.8,9.8
		L274.5,174.4z"/>
	
		<rect x="279.5" y="167" transform="matrix(-0.7071 -0.7071 0.7071 -0.7071 360.1807 494.2759)" class="st2" width="6" height="11"/>
	<path class="st2" d="M207.5,153.5c-2.2,0-4,1.8-4,4s1.8,4,4,4s4.1-1.8,4.1-4S209.8,153.5,207.5,153.5z M207.5,159.3
		c-1,0-1.8-0.8-1.8-1.8c0-1,0.8-1.8,1.8-1.8s1.8,0.8,1.8,1.8C209.3,158.5,208.5,159.3,207.5,159.3z"/>
	<path class="st2" d="M207.5,148.1c-5.2,0-9.4,4.2-9.4,9.4s4.2,9.4,9.4,9.4c5.2,0,9.4-4.2,9.4-9.4S212.7,148.1,207.5,148.1z
		 M207.5,162.7c-2.9,0-5.2-2.3-5.2-5.2s2.3-5.2,5.2-5.2s5.2,2.3,5.2,5.2S210.4,162.7,207.5,162.7z"/>
	<path class="st2" d="M283,33.4C283,33.3,283,33.3,283,33.4c0-0.4-0.3-0.7-0.7-0.7h-14.8c-0.4,0-0.6,0.3-0.7,0.6l0,0l0,0v5l0,0l0,0
		c0,0.3,0.3,0.6,0.6,0.6c0,0,0,0,0.1,0c0,0,0,0,0.1,0h2.2h5.1h5.1h2.2c0,0,0,0,0.1,0c0,0,0,0,0.1,0c0.3,0,0.6-0.3,0.6-0.6l0,0l0,0
		L283,33.4L283,33.4z M270.3,37.3c-0.8,0-1.5-0.7-1.5-1.5c0-0.8,0.7-1.5,1.5-1.5s1.5,0.7,1.5,1.5C271.8,36.7,271.1,37.3,270.3,37.3z
		 M279.7,37.3c-0.8,0-1.5-0.7-1.5-1.5c0-0.8,0.7-1.5,1.5-1.5c0.8,0,1.5,0.7,1.5,1.5C281.2,36.7,280.5,37.3,279.7,37.3z"/>
	<path class="st2" d="M286.2,44.1V30.9c0-0.8-0.6-1.4-1.4-1.4h-19.6c-0.8,0-1.4,0.6-1.4,1.4v13.2c0,0.8,0.6,1.4,1.4,1.4h19.6
		C285.7,45.5,286.2,44.9,286.2,44.1z M284.3,32C284.3,32.1,284.3,32.1,284.3,32v10.9l0,0l0,0c0,0.3-0.3,0.6-0.6,0.6c0,0,0,0-0.1,0
		c0,0,0,0-0.1,0h-0.9h-0.1h-0.1c-0.4,0-0.7-0.2-0.8-0.6l0,0l-0.8-2l0,0v-0.1c-0.2-0.4-0.5-0.6-0.9-0.6H275h-5
		c-0.4,0-0.8,0.2-0.9,0.6v0.1l0,0l-0.8,2l0,0c-0.1,0.3-0.5,0.5-0.8,0.6h-0.1h-0.1h-0.9c0,0,0,0-0.1,0c0,0,0,0-0.1,0
		c-0.3,0-0.6-0.3-0.6-0.6l0,0l0,0V32.1l0,0l0,0c0-0.4,0.3-0.6,0.7-0.6h17.3C284,31.4,284.3,31.7,284.3,32L284.3,32z"/>
	<path class="st2" d="M280.9,97.4L280.9,97.4l0.2,0.1c0.4,0.1,0.8,0,1-0.3c0.3-0.3,0.4-0.7,0.3-1.1l-0.2-0.3l-9.8-23l0,0
		c-0.1-0.1-0.1-0.2-0.2-0.4c-0.3-0.3-0.7-0.4-1-0.3l0,0c-0.1,0-0.1,0-0.1,0.1l0,0c-3,1.1-5.9,3-8.3,5.4c-2.5,2.5-4.3,5.2-5.4,8.3
		l0,0c0,0.1,0,0.1-0.1,0.1l0,0c-0.1,0.4,0,0.8,0.3,1.1c0.1,0.1,0.2,0.1,0.3,0.2l0,0L280.9,97.4z M273.5,87.7c0.8-0.8,2.1-0.8,2.9,0
		c0.8,0.8,0.8,2.1,0,2.8c-0.8,0.8-2.1,0.8-2.9,0C272.7,89.8,272.7,88.5,273.5,87.7z M268.3,77.4c0.8-0.8,2.1-0.8,2.9,0
		c0.8,0.8,0.8,2.1,0,2.9c-0.8,0.8-2.1,0.8-2.9,0S267.6,78.1,268.3,77.4z M266,85.3c0.5-1.3,1.7-1.6,2.5-1.6s0.9,0.8,0.8,1.3
		c-0.1,0.4-0.1,0.6,0.3,0.7c0.4,0.1,0.9,0.2,0.9,0.6c0.1,0.4-0.1,1.1-0.5,1.4s-1-0.2-1.2-0.4c-0.2-0.2-0.4-0.1-0.6,0.1
		c-0.2,0.3-0.5,0.9-1.4,0.4C265.9,87.7,265.5,86.6,266,85.3z"/>
	<path class="st2" d="M252.6,84L252.6,84c0,0.1-0.1,0.1-0.1,0.1l0,0c-0.1,0.4,0,0.8,0.3,1.1c0.1,0.1,0.2,0.2,0.3,0.2h0.1l1.1,0.5
		l0.1,0.1c0.4,0.2,0.8,0.1,1.1-0.2c0.1-0.1,0.1-0.2,0.2-0.4c0,0,0,0,0-0.1c1.3-3.2,3.1-6.2,5.8-8.8c2.6-2.6,5.6-4.5,8.8-5.7
		c0,0,0,0,0.1,0c0.1-0.1,0.2-0.1,0.4-0.2c0.3-0.3,0.4-0.8,0.3-1.1l-0.1-0.2l-0.5-1.1v-0.1c-0.1-0.1-0.1-0.2-0.2-0.3
		c-0.3-0.3-0.8-0.4-1.1-0.3c-0.1,0-0.1,0-0.1,0.1l0,0c-3.6,1.4-7,3.6-9.9,6.5C256.2,77,254,80.4,252.6,84z"/>
	<path class="st2" d="M134.5,119.5L134.5,119.5c0,0.1,0.1,0.2,0.2,0.2s0.1,0,0.1-0.1l0,0c0.4-0.4,0.7-0.9,0.7-1.5
		c0-1-1.3-1.5-1.3-2.3c0-0.2,0-0.4,0.1-0.5l0,0l0,0c0-0.1-0.1-0.1-0.2-0.1c-0.1,0-0.1,0-0.1,0.1l0,0c-0.3,0.3-0.6,0.8-0.6,1.3
		c0,1.3,1.2,1.3,1.2,2.2C134.7,119,134.6,119.2,134.5,119.5C134.5,119.4,134.5,119.5,134.5,119.5z"/>
	<path class="st2" d="M137.4,120.1C137.4,120.1,137.3,120.1,137.4,120.1C137.4,120.2,137.4,120.2,137.4,120.1c0,0.2,0.1,0.2,0.1,0.2
		h0.1c0,0,0,0,0.1,0c0.8-0.7,1.5-1.6,1.5-2.8c0-1.6-2-2.3-2-3.7c0-0.4,0.1-0.9,0.2-1.1v-0.1l0,0c0-0.1-0.1-0.2-0.1-0.2h-0.1
		c0,0,0,0-0.1,0.1c-0.5,0.5-1.2,1.4-1.2,2.5c0,2,2,2,2,3.5C137.8,119.2,137.6,119.8,137.4,120.1L137.4,120.1z"/>
	<path class="st2" d="M130,141.6c-0.1,0.4,0.2,0.7,0.5,0.8h0.1c0.4,0.2,0.9,0,1-0.5l0.3-2.2c0,0,0,0,0-0.1c0.1-0.4,0.4-0.7,0.8-0.7
		h7.4c0.4,0,0.7,0.3,0.8,0.7c0,0,0,0,0,0.1l0.3,2.2c0.1,0.5,0.6,0.7,1,0.5h0.1c0.4-0.1,0.5-0.4,0.4-0.8l-1.4-9.9
		c-0.1-0.6,0-1,0.3-1.1l0,0l0.1-0.1c2.9-1.7,4.7-4.7,5.2-7.6v-0.1l0,0v-0.1c0-0.4-0.3-0.6-0.6-0.6h-19.8c-0.4,0-0.6,0.3-0.6,0.6v0.1
		l0,0v0.1c0.4,2.8,2.2,5.8,5.2,7.5l0,0c0.1,0,0.1,0.1,0.1,0.1l0,0c0.4,0.2,0.4,0.5,0.3,1.1L130,141.6z M133.7,131.5L133.7,131.5
		c0.1,0,0.2,0,0.2,0l0,0h0.1c0.8,0.2,1.5,0.2,2.3,0.2s1.6-0.1,2.4-0.2l0,0c0.1,0,0.2,0,0.2,0c0.4,0,0.8,0.2,0.9,0.7l0.6,4.5l0,0
		c0,0.1,0,0.1,0,0.1c0,0.5-0.4,0.8-0.8,0.8h-6.6c-0.4,0-0.8-0.4-0.8-0.8v-0.1l0,0l0.6-4.5C132.9,131.8,133.3,131.5,133.7,131.5z
		 M128.5,125C128.4,125,128.4,125,128.5,125C128.4,125,128.4,125,128.5,125c-0.1-0.4,0.1-0.7,0.4-0.8c0.3-0.1,0.6,0.1,0.8,0.3l0,0
		c0.5,1.3,1.4,2.4,2.7,3.1c0.3,0.2,0.4,0.5,0.2,0.8c-0.1,0.3-0.5,0.4-0.8,0.2C130.2,127.9,129.1,126.5,128.5,125z"/>
	<path class="st2" d="M113.7,90.4c-0.1,0-0.1,0-0.2,0l-1.8,0.2c-1,0.1-1.7,1.1-1.7,2v0.9c0,1,0.8,1.6,1.7,1.5l2-0.3
		c1-0.2,1.7-1.1,1.7-2v-0.1l0,0v-8.1v-0.1v-0.1c0-0.6,0.4-1.1,1-1.2c0.1,0,0.2,0,0.2,0l5.8-0.9h0.1h0.1c0.4,0,0.9,0.4,0.9,0.9V88
		c0,0.3-0.2,0.5-0.5,0.6l0,0c-0.1,0-0.1,0-0.1,0l-1.8,0.2c-1,0.2-1.7,1.1-1.7,2v0.9c0,1,0.8,1.6,1.7,1.5l2-0.3c1-0.2,1.7-1.1,1.7-2
		l0,0V90V78.3c0-0.4-0.4-0.9-0.9-0.9h-0.1h-0.2l-8.6,1.4l-0.3,0.1c-0.5,0.2-1,0.7-1,1.3l0,0l0,0v9.8l0,0
		C114.1,90.1,114,90.4,113.7,90.4z"/>
	<path class="st2" d="M151.4,91.3c-0.4,0.5-0.8,1-1.2,1.4l0,0c-0.4,0.4-1,0.9-1.5,1.3c-0.3,0.2-0.7,0.3-1,0.2
		c-0.1-0.1-0.3-0.2-0.4-0.3l-2.3-2.3c-0.3-0.3-0.8-0.3-1.1,0c-0.1,0.2-0.2,0.3-0.2,0.4l0,0v0.1l0,0c0.1,1.4,0.6,2.8,1.6,3.8
		c0.1,0.1,0.1,0.1,0.1,0.1c1.6,1.4,3.7,1.9,5.6,1.3c0.1-0.1,0.1-0.1,0.2-0.1c0.3-0.1,0.7,0,0.9,0.2l0,0l0.1,0.1l0.1,0.1l0,0
		c1.5,1.6,6.9,7,9.8,10.4c0.8,1,2.3,0.9,3.2,0c0.9-0.9,0.9-2.5,0-3.2c-3.5-3.1-8.9-8.3-10.4-9.8l-0.1-0.1c0,0,0-0.1-0.1-0.1
		c-0.2-0.3-0.3-0.6-0.2-1c0-0.1,0.1-0.2,0.1-0.2l0,0c0.6-1.9,0.1-4.1-1.3-5.6c-0.1-0.1-0.1-0.1-0.1-0.1c-1.1-1.1-2.5-1.7-3.8-1.7
		l0,0h-0.1l0,0c-0.1,0-0.4,0.1-0.4,0.2c-0.3,0.3-0.3,0.8,0,1l2.3,2.3c0.1,0.1,0.2,0.3,0.3,0.4c0.1,0.3,0.1,0.7-0.2,0.9
		C151.5,91.2,151.5,91.3,151.4,91.3z M163.2,105.7c0.4-0.4,1-0.4,1.3,0c0.4,0.4,0.4,1,0,1.3c-0.4,0.4-1,0.4-1.3,0
		C162.8,106.6,162.8,106,163.2,105.7z"/>
	<path class="st2" d="M174.9,54.1v19.2c0,0.9,0.8,1.6,1.6,1.6h9.5c0.9,0,1.6-0.8,1.6-1.6V54.1c0-0.9-0.8-1.6-1.6-1.6h-9.4
		C175.6,52.5,174.9,53.2,174.9,54.1z M181.2,74.2c-0.6,0-1.1-0.4-1.1-1.1s0.4-1.1,1.1-1.1s1.1,0.4,1.1,1.1
		C182.3,73.6,181.9,74.2,181.2,74.2z M180,53.8h0.1h1h0.4l0,0h0.2h0.8l0,0c0.3,0,0.5,0.2,0.5,0.5c0,0.2-0.2,0.4-0.4,0.5h-0.1h-0.8
		h-0.2l0,0h-0.4h-1.1l0,0c-0.3,0-0.5-0.2-0.5-0.5C179.5,54.1,179.7,53.9,180,53.8z M176.6,57L176.6,57c0-0.4,0.3-0.8,0.8-0.9
		c0.1,0,0.1,0,0.1,0s0.1,0,0.1,0h7.1c0.1,0,0.1,0,0.2,0s0.1,0,0.1,0c0.4,0.1,0.7,0.4,0.8,0.8v0.1V57v13.4v0.1v0.1
		c-0.1,0.4-0.5,0.8-0.9,0.8l0,0h-7.4l0,0c-0.5,0-0.9-0.4-0.9-0.9l0,0V57z"/>
	<path class="st2" d="M240.4,101.2V100c0.9-0.4,1.6-1.2,1.6-2.2V92c0-1.1-0.8-2.1-2-2.3V87c0.6,0,0.5-0.4,0.5-0.4
		c0-0.2-0.3-0.4-0.6-0.4h-4.8c-0.4,0-0.6,0.1-0.6,0.4c0,0-0.1,0.4,0.5,0.4v2.6c-1.1,0.2-2,1.2-2,2.3v5.8c0,1,0.7,1.9,1.6,2.2v1.2
		L240.4,101.2L240.4,101.2z M236.5,87.4h3.1v1.8h-3.1V87.4z M236.7,90.1h2.8c1.5,0,1.9,1.8,1.9,1.8v6.2c-0.2,1-1.5,1.4-1.5,1.4
		l-0.7-3.7c-0.4-3.7-2.6-4.5-2.6-4.5C235.2,91,236.7,90.1,236.7,90.1z M235.5,100.2h4c0.1,0,0.1,0,0.2,0c-0.1,0.2-0.3,0.4-0.6,0.4
		h-3.1c-0.3,0-0.5-0.2-0.6-0.4C235.4,100.2,235.4,100.2,235.5,100.2z"/>
	<path class="st2" d="M166.9,23.8c0,0-0.2-0.5-0.3-0.6s-0.2-0.1-0.4-0.1c-0.1,0.1-1.4,0.7-1.5,0.8c-0.2,0.1-0.2,0.3-0.1,0.5
		c0.1,0.1,0.4,0.7,0.4,0.9c0,0.1,0.1,0.1,0.1,0.1l1.9-1v-0.1C167,24.1,166.9,23.8,166.9,23.8z"/>
	<path class="st2" d="M170.9,29.8h-1.6c-0.3,0-0.5,0.2-0.5,0.5v2.1c0,0.3,0.2,0.5,0.5,0.5h1.6c0.3,0,0.5-0.2,0.5-0.5v-2.1
		C171.4,30,171.2,29.8,170.9,29.8z"/>
	<path class="st2" d="M174,22.5c-1.1,0-3.7,0-4.3,0c-0.7,0-1,0.5-1.3,1c-0.3,0.5-0.5,1.1-0.5,1.1s-0.1,0.1-0.4,0.1
		c-0.1-0.1-0.3-0.2-0.4-0.1c-0.6,0.3-1.4,0.7-1.9,0.9c-0.1,0-0.1,0.3-0.1,0.4l0,0c-0.3,0.2-0.5,0.6-0.5,0.9c0,0.1,0,8.5,0,9.1
		c0,0.9,0.7,1.7,1.7,1.7c1.1,0,6.8,0,7.4,0c0.9,0,1.7-0.8,1.7-1.7c0-0.6,0-11.4,0-11.7C175.5,23.4,174.9,22.5,174,22.5z M169.2,23.3
		c0.1-0.3,0.6-0.5,0.8-0.5s2.8,0,2.8,0s0.4,0,0.4,0.2c0.1,0.1,0.1,0.2,0,0.4c0,0.1-0.2,0.4-0.6,0.7c-0.2,0.2-0.4,0.3-0.9,0.4
		c-0.5,0.1-1.6,0.1-2,0.1s-0.8,0.1-0.8,0.1l-0.4,0.1C168.5,24.8,169.1,23.5,169.2,23.3z M174.2,35.6c-0.1,0.1-0.2,0.1-0.3,0
		l-2.3-2.3c-0.1,0.1-0.2,0.1-0.3,0.1h-2.2c-0.1,0-0.2,0-0.3-0.1l-2.3,2.3c-0.1,0.1-0.2,0.1-0.3,0c-0.1-0.1-0.1-0.2,0-0.3l2.3-2.3
		c-0.1-0.1-0.1-0.2-0.1-0.3V30c0-0.1,0-0.2,0.1-0.3l-2.3-2.3c-0.1-0.1-0.1-0.2,0-0.3c0.1-0.1,0.2-0.1,0.3,0l2.3,2.3
		c0.1-0.1,0.2-0.1,0.3-0.1h2.1c0.1,0,0.2,0,0.3,0.1l2.3-2.3c0.1-0.1,0.2-0.1,0.3,0s0.1,0.2,0,0.3l-2.3,2.3c0.1,0.1,0.1,0.2,0.1,0.3
		v2.6c0,0.1,0,0.2-0.1,0.3l2.3,2.3C174.3,35.4,174.3,35.6,174.2,35.6z"/>
	<path class="st2" d="M260,1.4c-0.1,0-0.1,0.1-0.2,0.1c-0.4,0.3-0.4,0.8-0.1,1.2l4.7,5.6c1.5,1.8,3.5,2.8,5.7,2.9
		c2.1,0.2,4.4-0.5,6.1-2c2.8-2.3,3.7-6.1,2.5-9.3h-15.4C262.1,0.6,261,1,260,1.4C260.1,1.4,260,1.4,260,1.4z"/>
	<path class="st2" d="M312.5,214.3l-13.4-13.4l-1,1c-0.8,0.8-0.8,2.2,0,3.1l14.4,14.4L312.5,214.3L312.5,214.3z"/>
	<path class="st2" d="M311.2,191.9c-0.8-0.8-2.2-0.8-3.1,0l-6.6,6.6l11,11v-16.3L311.2,191.9z M310,200.5c-0.5,0.5-1.4,0.5-1.8,0
		l-1.6-1.6c-0.5-0.5-0.5-1.3,0-1.8l1.6-1.6c0.5-0.5,1.3-0.5,1.8,0l1.6,1.6c0.5,0.5,0.5,1.4,0,1.8L310,200.5z"/>
</g>
</svg>
