<?xml version="1.0" encoding="utf-8"?>
<!-- Generator: Adobe Illustrator 18.1.0, SVG Export Plug-In . SVG Version: 6.00 Build 0)  -->
<!DOCTYPE svg PUBLIC "-//W3C//DTD SVG 1.1//EN" "http://www.w3.org/Graphics/SVG/1.1/DTD/svg11.dtd">
<svg version="1.1" xmlns="http://www.w3.org/2000/svg" xmlns:xlink="http://www.w3.org/1999/xlink" x="0px" y="0px"
	 viewBox="0 0 100 100" style="enable-background:new 0 0 100 100;" xml:space="preserve">
<style type="text/css">
	.st0{display:none;fill:#FFFFFF;stroke:#C6C6C6;stroke-width:0.5;stroke-miterlimit:10;}
	.st1{display:none;fill:#FFE168;stroke:#F9B233;stroke-width:0.5;stroke-miterlimit:10;}
	.st2{clip-path:url(#SVGID_2_);fill:#FEF4E8;}
	.st3{clip-path:url(#SVGID_2_);fill:#B5D184;}
	.st4{clip-path:url(#SVGID_2_);fill:#FFE4C7;}
	.st5{clip-path:url(#SVGID_2_);fill:#FFFFFF;stroke:#DADADA;stroke-width:0.5;stroke-miterlimit:10;}
	.st6{clip-path:url(#SVGID_2_);}
	.st7{fill:none;stroke:#9E9198;stroke-miterlimit:10;}
	.st8{clip-path:url(#SVGID_2_);fill:#FFE23B;stroke:#FDC010;stroke-miterlimit:10;}
	.st9{clip-path:url(#SVGID_2_);fill:#FFFFFF;stroke:#C6C6C6;stroke-width:0.5;stroke-miterlimit:10;}
	.st10{fill:#E84738;}
	.st11{fill:none;}
	.st12{fill:#D7ECF1;}
	.st13{display:none;clip-path:url(#SVGID_4_);}
	.st14{display:inline;fill:#CEBFA5;}
	.st15{display:inline;fill:#EFE5DF;}
	.st16{display:inline;fill:#DBCCAF;}
	.st17{display:inline;}
	.st18{fill:none;stroke:#BAA890;stroke-width:0.5;stroke-linecap:round;stroke-miterlimit:10;}
	.st19{clip-path:url(#SVGID_6_);}
	.st20{fill:#FFE4C7;}
	.st21{fill:#EFD5BB;}
	.st22{fill:#FFFFFF;}
	.st23{fill:#374654;}
	.st24{opacity:0.1;fill:#FFFFFF;}
	.st25{fill:#FDC010;}
	.st26{fill:#246CD3;}
	.st27{fill:#FFCE00;}
	.st28{fill:#0023A0;}
	.st29{fill:#FFE4C7;stroke:#EFD5BB;stroke-linecap:round;stroke-miterlimit:10;}
	.st30{clip-path:url(#SVGID_8_);fill:#D7ECF1;}
	.st31{clip-path:url(#SVGID_8_);fill:#92AC64;}
	.st32{clip-path:url(#SVGID_8_);fill:#B5D184;}
	.st33{clip-path:url(#SVGID_8_);}
	.st34{fill:#EDEDED;}
	.st35{fill:#DADADA;}
	.st36{fill:#C6C6C6;}
	.st37{fill:#575756;}
	.st38{fill:#F6F6F6;}
	.st39{fill:#126AD9;}
	.st40{fill:#D8DBDF;}
	.st41{clip-path:url(#SVGID_10_);fill:#818385;}
	.st42{clip-path:url(#SVGID_10_);fill:#F8F8F9;}
	.st43{clip-path:url(#SVGID_12_);fill:#818385;}
	.st44{clip-path:url(#SVGID_12_);fill:#F8F8F9;}
	.st45{clip-path:url(#SVGID_14_);fill:#818385;}
	.st46{clip-path:url(#SVGID_14_);fill:#F8F8F9;}
	.st47{clip-path:url(#SVGID_16_);fill:#818385;}
	.st48{clip-path:url(#SVGID_16_);fill:#F8F8F9;}
	.st49{clip-path:url(#SVGID_18_);fill:#818385;}
	.st50{clip-path:url(#SVGID_18_);fill:#F8F8F9;}
	.st51{clip-path:url(#SVGID_20_);fill:#818385;}
	.st52{clip-path:url(#SVGID_20_);fill:#F8F8F9;}
	.st53{clip-path:url(#SVGID_22_);fill:#818385;}
	.st54{clip-path:url(#SVGID_22_);fill:#F8F8F9;}
	.st55{clip-path:url(#SVGID_24_);fill:#818385;}
	.st56{clip-path:url(#SVGID_24_);fill:#F8F8F9;}
	.st57{clip-path:url(#SVGID_26_);fill:#818385;}
	.st58{clip-path:url(#SVGID_26_);fill:#F8F8F9;}
	.st59{clip-path:url(#SVGID_28_);fill:#818385;}
	.st60{clip-path:url(#SVGID_28_);fill:#F8F8F9;}
	.st61{clip-path:url(#SVGID_30_);fill:#818385;}
	.st62{clip-path:url(#SVGID_30_);fill:#F8F8F9;}
	.st63{clip-path:url(#SVGID_32_);fill:#818385;}
	.st64{clip-path:url(#SVGID_32_);fill:#F8F8F9;}
	.st65{clip-path:url(#SVGID_34_);fill:#818385;}
	.st66{clip-path:url(#SVGID_34_);fill:#F8F8F9;}
	.st67{clip-path:url(#SVGID_36_);fill:#818385;}
	.st68{clip-path:url(#SVGID_36_);fill:#F8F8F9;}
	.st69{clip-path:url(#SVGID_38_);fill:#818385;}
	.st70{clip-path:url(#SVGID_38_);fill:#F8F8F9;}
	.st71{clip-path:url(#SVGID_40_);fill:#818385;}
	.st72{clip-path:url(#SVGID_40_);fill:#F8F8F9;}
	.st73{clip-path:url(#SVGID_42_);fill:#818385;}
	.st74{clip-path:url(#SVGID_42_);fill:#F8F8F9;}
	.st75{clip-path:url(#SVGID_44_);fill:#818385;}
	.st76{clip-path:url(#SVGID_44_);fill:#F8F8F9;}
	.st77{clip-path:url(#SVGID_46_);fill:#818385;}
	.st78{clip-path:url(#SVGID_46_);fill:#F8F8F9;}
	.st79{clip-path:url(#SVGID_48_);fill:#818385;}
	.st80{clip-path:url(#SVGID_48_);fill:#F8F8F9;}
	.st81{clip-path:url(#SVGID_50_);fill:#818385;}
	.st82{clip-path:url(#SVGID_50_);fill:#F8F8F9;}
	.st83{clip-path:url(#SVGID_52_);fill:#818385;}
	.st84{clip-path:url(#SVGID_52_);fill:#F8F8F9;}
	.st85{clip-path:url(#SVGID_54_);fill:#818385;}
	.st86{clip-path:url(#SVGID_54_);fill:#F8F8F9;}
	.st87{clip-path:url(#SVGID_56_);fill:#818385;}
	.st88{clip-path:url(#SVGID_56_);fill:#F8F8F9;}
	.st89{clip-path:url(#SVGID_58_);fill:#818385;}
	.st90{clip-path:url(#SVGID_58_);fill:#F8F8F9;}
	.st91{clip-path:url(#SVGID_60_);fill:#818385;}
	.st92{clip-path:url(#SVGID_60_);fill:#F8F8F9;}
	.st93{fill:#818385;}
	.st94{fill:#C7CACD;}
	.st95{fill:#C0C2C6;}
	.st96{fill:#F8F8F9;}
	.st97{fill:none;stroke:#000000;stroke-width:0.2;stroke-miterlimit:10;}
	.st98{opacity:0.1;}
	.st99{fill:#B99966;}
	.st100{fill:#9D7543;}
	.st101{fill:#B5D184;}
	.st102{display:none;fill:#92AC64;}
	.st103{fill:#E0DE71;}
	.st104{fill:#FFE23B;}
	.st105{fill:#9E9198;}
	.st106{fill:#92AC64;}
	.st107{fill:#6B6785;}
	.st108{fill:#B5675D;}
	.st109{fill:#EF8778;}
	.st110{fill:#FEF4E8;}
</style>
<g id="Layer_1">
	<path class="st0" d="M103.2,0H100l-4.9,23.3c-0.1,0.7-0.7,1.2-1.4,1.2l-16.5,0.4c-0.9,0-1.7-0.8-1.5-1.8L80.3,0h-3.2l-4.8,23.9
		c-0.1,0.7-0.7,1.2-1.4,1.2l-44.1,1.2c-0.6,0-1.1-0.6-1-1.2l6.8-31.7h-3.2l-6.9,32.3c-0.1,0.5-0.5,0.8-1,0.8L0,27v5.3l19.8-0.5
		c0.6,0,1.1,0.6,1,1.2L18,46c-0.2,0.9-1,1.5-1.9,1.6L0,48.2v3.6l14.4-0.5c1.3,0,2.3,1.1,2,2.4L14,65.1c-0.2,0.9-1,1.6-1.9,1.6L0,67
		v5.3l9.9-0.3c1.3,0,2.3,1.2,2,2.4l-8.2,38.2H7l8.4-39.2c0.2-0.9,1-1.6,1.9-1.6l43.2-1.2c1.3,0,2.3,1.1,2,2.4l-7.1,35.6h3.2L66,72.1
		c0.2-0.9,1-1.6,1.9-1.6l14.8-0.4c1.3,0,2.3,1.1,2,2.4l-7.6,36.1h3.2l7.8-37.1c0.2-0.9,1-1.6,1.9-1.6l9.9-0.3v-5.3l-7.8,0.2
		c-1.3,0-2.3-1.1-2-2.4l2.6-12.4c0.1-0.7,0.7-1.2,1.4-1.2l5.8-0.2v-3.6l-4.3,0.1c-1,0-1.7-0.8-1.5-1.8l2.6-12.2
		c0.1-0.7,0.7-1.2,1.4-1.2l1.9,0v-5.3l0,0c-1,0-1.7-0.8-1.5-1.8L103.2,0z M25.1,31.7l44-1.2c0.9,0,1.7,0.8,1.5,1.8l-2.5,12.4
		c-0.1,0.7-0.7,1.2-1.4,1.2l-43.3,1.5c-1.3,0-2.3-1.1-2-2.4l2.7-12.5C24.3,32,24.7,31.7,25.1,31.7z M62.5,65.3l-43.1,1.1
		c-1.3,0-2.3-1.2-2-2.4l2.5-11.5c0.2-0.9,1-1.5,1.9-1.6l43.6-1.5c1,0,1.7,0.8,1.5,1.8l-2.5,12.4C64.2,64.6,63.4,65.3,62.5,65.3z
		 M84.8,64.7l-14.9,0.4c-1.3,0-2.3-1.1-2-2.4l2.4-12.3c0.1-0.7,0.7-1.2,1.4-1.2l16.2-0.6c1,0,1.7,0.8,1.5,1.8l-2.7,12.6
		C86.5,64.1,85.7,64.7,84.8,64.7z M89.3,45.1l-16.2,0.6c-1,0-1.7-0.8-1.5-1.8l2.5-12.4c0.1-0.7,0.7-1.2,1.4-1.2l16.4-0.4
		c1,0,1.7,0.8,1.5,1.8l-2.6,12.3C90.6,44.6,90,45.1,89.3,45.1z"/>
	<path class="st1" d="M80.3,0h-8L62.1,6.7c-1.5,1-3.4-0.3-3.1-2.1L60,0H50L29.3,100h10l17.3-83.8c0.1-0.5,0.4-1,0.9-1.3L80.3,0z"/>
	<g>
		<defs>
			<circle id="SVGID_1_" cx="50" cy="50" r="50"/>
		</defs>
		<clipPath id="SVGID_2_">
			<use xlink:href="#SVGID_1_"  style="overflow:visible;"/>
		</clipPath>
		<rect class="st2" width="100" height="100"/>
		<polygon class="st3" points="60.5,45.9 71.9,45.9 75.1,30.6 57.5,30.6 53.4,40.2 		"/>
		<polygon class="st3" points="51.2,100 0.9,100 6,89.4 53.5,88.3 		"/>
		<polygon class="st4" points="50.7,0 48.9,0 40.2,0 38.6,7.3 47.4,7.3 38.5,26.1 48.7,25.8 59,0 		"/>
		<path class="st5" d="M112.6,0h-3.2l-9,23.3c-0.3,0.7-0.9,1.2-1.6,1.2l-16.5,0.4c-1,0-1.5-0.8-1.2-1.8L89.7,0h-3.2l-9,23.9
			c-0.3,0.7-0.9,1.2-1.6,1.2l-44.4,1.2c-0.7,0-1-0.6-0.8-1.2L43.1-6.7h-3.2L27.2,25.6c-0.2,0.5-0.6,0.8-1.1,0.8L0.9,27L0,32.3
			l23.6-0.5c0.7,0,1,0.6,0.8,1.2l-5.1,13c-0.4,0.9-1.2,1.5-2.2,1.6L0.9,48.2l-0.6,3.6l14.5-0.5c1.3,0,2.1,1.1,1.6,2.4l-4.5,11.4
			c-0.4,0.9-1.3,1.6-2.2,1.6L-2.5,67l-0.9,5.3l10-0.3c1.3,0,2.1,1.2,1.6,2.4l-14.9,38.2h3.2l15.3-39.2c0.4-0.9,1.3-1.6,2.2-1.6
			l43.4-1.2c1.3,0,2.1,1.1,1.6,2.4l-13.3,35.6h3.2l13.7-36.5c0.3-0.9,1.3-1.6,2.2-1.6l14.9-0.4c1.3,0,2.1,1.1,1.6,2.4l-14,36.1h3.2
			l14.4-37.1c0.4-0.9,1.3-1.6,2.2-1.6l10-0.3l0.9-5.3l-7.9,0.2c-1.3,0-2.1-1.1-1.6-2.4l4.8-12.4c0.3-0.7,0.9-1.2,1.6-1.2l5.9-0.2
			l0.6-3.6l-4.4,0.1c-1,0-1.5-0.8-1.2-1.8l4.7-12.2c0.3-0.7,0.9-1.2,1.6-1.2l1.9,0l0.9-5.3l0,0c-1,0-1.5-0.8-1.2-1.8L112.6,0z
			 M28.9,31.7l44.3-1.2c1,0,1.5,0.8,1.2,1.8l-4.7,12.4c-0.3,0.7-0.9,1.2-1.6,1.2l-43.5,1.5c-1.3,0-2.1-1.1-1.6-2.4l4.9-12.5
			C28,32,28.4,31.7,28.9,31.7z M60.3,65.3L17,66.5c-1.3,0-2.1-1.2-1.6-2.4l4.5-11.5c0.4-0.9,1.2-1.5,2.2-1.6L66,49.5
			c1,0,1.5,0.8,1.2,1.8l-4.7,12.4C62.2,64.6,61.3,65.3,60.3,65.3z M82.7,64.7l-15,0.4c-1.3,0-2.1-1.1-1.6-2.4l4.6-12.3
			c0.3-0.7,0.9-1.2,1.6-1.2l16.2-0.6c1,0,1.5,0.8,1.2,1.8l-4.9,12.6C84.5,64.1,83.6,64.7,82.7,64.7z M90.7,45.1l-16.3,0.6
			c-1,0-1.5-0.8-1.2-1.8l4.7-12.4c0.3-0.7,0.9-1.2,1.6-1.2l16.4-0.4c1,0,1.5,0.8,1.2,1.8l-4.8,12.3C92.1,44.6,91.4,45.1,90.7,45.1z"
			/>
		<g class="st6">
			<path class="st7" d="M0,100c0,0,80.3-23,80.3-100"/>
			<line class="st7" x1="78" y1="13" x2="81" y2="13"/>
			<line class="st7" x1="73.8" y1="31.7" x2="76.5" y2="33"/>
			<line class="st7" x1="65.4" y1="49.1" x2="67.9" y2="50.9"/>
			<line class="st7" x1="54.4" y1="63.7" x2="56.5" y2="65.9"/>
			<line class="st7" x1="23.2" y1="88.1" x2="24.8" y2="90.6"/>
			<line class="st7" x1="7.5" y1="95.6" x2="8.6" y2="98.4"/>
		</g>
		<path class="st8" d="M89.1,0h-8L69.7,6.7c-1.7,1-3.4-0.3-2.7-2.1L68.8,0h-10L20.5,100h10l32.1-83.8c0.2-0.5,0.6-1,1.1-1.3L89.1,0z
			"/>
		<polygon class="st9" points="12.1,-8.2 12.1,5.6 -4,22 -1.2,24.8 16.1,8.3 16.1,-8.2 		"/>
	</g>
	<path class="st10" d="M22.4,58.3c0-5.1-4.2-9.3-9.3-9.3c-5.1,0-9.3,4.2-9.3,9.3c0,0.7,0.1,1.3,0.2,2l0,0c1.1,5.1,4.1,9.5,8.1,12.4
		c0.3,0.2,0.6,0.3,1,0.3c0.3,0,0.6-0.1,0.8-0.2c0.1-0.1,0.2-0.1,0.3-0.2c3.9-2.9,6.8-7.2,7.9-12.2l0,0C22.4,59.7,22.4,59,22.4,58.3z
		 M13.2,54c2.3,0,4.2,1.9,4.2,4.2c0,2.3-1.9,4.2-4.2,4.2c-2.3,0-4.2-1.9-4.2-4.2C8.9,55.9,10.8,54,13.2,54z"/>
	<path class="st10" d="M35.4,11.4c0-5.1-4.2-9.3-9.3-9.3c-5.1,0-9.3,4.2-9.3,9.3c0,0.7,0.1,1.3,0.2,2l0,0c1.1,5.1,4.1,9.5,8.1,12.4
		c0.3,0.2,0.6,0.3,1,0.3c0.3,0,0.6-0.1,0.8-0.2c0.1-0.1,0.2-0.1,0.3-0.2c3.9-2.9,6.8-7.2,7.9-12.2l0,0
		C35.4,12.8,35.4,12.1,35.4,11.4z M26.2,7.1c2.3,0,4.2,1.9,4.2,4.2c0,2.3-1.9,4.2-4.2,4.2c-2.3,0-4.2-1.9-4.2-4.2
		C21.9,9,23.8,7.1,26.2,7.1z"/>
	<path class="st10" d="M93.1,49.6c0-5.1-4.2-9.3-9.3-9.3c-5.1,0-9.3,4.2-9.3,9.3c0,0.7,0.1,1.3,0.2,2l0,0c1.1,5.1,4.1,9.5,8.1,12.4
		c0.3,0.2,0.6,0.3,1,0.3c0.3,0,0.6-0.1,0.8-0.2c0.1-0.1,0.2-0.1,0.3-0.2c3.9-2.9,6.8-7.2,7.9-12.2l0,0C93,51,93.1,50.3,93.1,49.6z
		 M83.9,45.3c2.3,0,4.2,1.9,4.2,4.2c0,2.3-1.9,4.2-4.2,4.2c-2.3,0-4.2-1.9-4.2-4.2C79.6,47.2,81.5,45.3,83.9,45.3z"/>
</g>
<g id="Layer_2">
</g>
<g id="Layer_3">
</g>
<g id="swatches">
</g>
</svg>
