<?xml version="1.0" encoding="utf-8"?>
<!-- Generator: Adobe Illustrator 18.1.0, SVG Export Plug-In . SVG Version: 6.00 Build 0)  -->
<!DOCTYPE svg PUBLIC "-//W3C//DTD SVG 1.1//EN" "http://www.w3.org/Graphics/SVG/1.1/DTD/svg11.dtd">
<svg version="1.1" id="Layer_4" xmlns="http://www.w3.org/2000/svg" xmlns:xlink="http://www.w3.org/1999/xlink" x="0px" y="0px"
	 viewBox="0 0 276.5 81.2" style="enable-background:new 0 0 276.5 81.2;" xml:space="preserve">
<style type="text/css">
	.st0{fill:#EF4736;}
</style>
<g>
	<g>
		<path class="st0" d="M103.3,36.6c6.7,3.2,9.2,7.1,9.1,12.6c-0.2,8.3-6.6,13.3-18.1,13.3c-5.5,0-9.5-1.2-12.1-2.6V49.8
			c1.8-0.3,3.6-0.8,5.4-0.8c0.2,1.7,0.8,3.3,1.5,4.8c1.1,0.2,2.4,0.4,3.7,0.4c4.4,0,6.7-1.4,6.7-3.8c0.1-1.9-1.3-2.9-4.2-4.6
			l-5.7-3.3c-3.6-2.1-6.7-5.6-6.7-10.8c0-7.4,6.5-12.9,17.2-12.9c5.6,0,10,1.5,10.1,1.5v6.6V31c-1.8,0.3-3.6,0.8-5.4,0.8
			c-0.2-1.7-0.7-3.2-1.4-4.6c-0.8-0.1-1.5-0.2-2.3-0.2c-3.9,0-6.2,1.5-6.2,3.7c0,1.5,1,2.4,3.5,3.6L103.3,36.6z"/>
		<path class="st0" d="M142.5,52.5c1.2,0.1,3.1,0.3,4.2,0.5c0.7,1.4,0.8,3.7,0.8,5.6c-4,0.6-7.4,1.7-11.1,3.5h-2.3
			c-0.7-1.5-1.2-3.3-1.6-4.9c-2,2.9-5.1,4.9-8.5,4.9c-4.3,0-7.3-3.2-7.3-8c0-6.6,5.8-9.8,14.3-11.6l1-0.2c-0.5-2.9-2.4-3.4-4.2-3.4
			c-1.4,0-2.5,0.4-3.4,0.8c-0.4,1.1-0.7,2.2-0.9,3.4c-1.8,0-3.6-0.5-5.4-0.8v-8.6c0,0,4.3-2.6,11.5-2.6c8.9,0,13.4,4,13,12.5
			l-0.5,8.7L142.5,52.5z M131,48.6c-2.9,0.6-4.6,1.7-4.6,3.5c0,1.4,1,2.3,2.3,2.3c2,0,3.2-2,3.3-5.2l0.1-0.8L131,48.6z"/>
		<path class="st0" d="M180,31.5c0.3,1.8,0.8,3.6,0.8,5.4c-0.8,0.1-1.7,0.3-2.4,0.5c-0.5,1.8-1.8,5.7-3.5,9.8l-6,14.1
			c-4.2,0.7-7.3,0.8-10.3,0.6l-7.1-18c-1-2.4-1.5-4.8-1.8-6.3c-0.9-0.3-1.8-0.5-2.7-0.7c0-1.8,0.5-3.6,0.8-5.4h2.3
			c2.9,0,5.8-0.3,8.7-0.6l4.2,13.7c0.6,2,1.3,5.4,1.7,7.5c1.1-5.2,2.9-10,5.1-13.7c-1.6-0.7-3.2-1.2-5-1.5c0-1.8,0.5-3.6,0.8-5.4
			L180,31.5z"/>
		<path class="st0" d="M193.3,47.8c0.8,4.4,3.5,6.2,7,6.2c4.2,0,6.7-2.6,6.7-2.6c1.7,0.8,2,2.9,2,5.4c0,0-3.6,5.2-12.1,5.2
			c-8.7,0-14.2-5.8-14.2-15c0-9.7,6.1-15.9,14.7-15.9c7.5,0,13.8,4.6,12,16.3L193.3,47.8z M200.2,42.2c0-2.8-0.8-4.6-3.2-4.6
			s-3.5,2-3.9,4.9L200.2,42.2z"/>
		<path class="st0" d="M213,50.1V43h17.8v7.1H213z"/>
		<path class="st0" d="M256.8,18.6c12.4,0,20.2,8.3,19.7,21.2c-0.5,13.4-9.5,22.8-22.4,22.8c-12.4,0-20.2-8.7-19.7-21.6
			C234.9,27.5,243.9,18.6,256.8,18.6L256.8,18.6z M246.4,40.4c0,7.8,3.7,13.3,9.2,13.3c5.5,0,9.1-5.5,9.1-13.3
			c0-7.8-3.7-12.8-9.2-12.8C250.1,27.5,246.4,32.5,246.4,40.4z"/>
	</g>
	<path class="st0" d="M63.9,24.4c-0.1-1-0.6-1.5-0.8-2.7c0,0,0-0.1,0-0.1c-0.9-5.7-4.5-10.5-9.4-13.1c-2-1-4.2-1.7-6.5-1.9
		c-0.1,0-0.3-0.1-0.4-0.1c0,0,0,0-0.1,0c0,0-0.1,0-0.1,0c0,0,0,0-0.1,0c-0.2,0-0.3,0.1-0.5,0.2V5.9C46,2.6,43.4,0,40.1,0H5.9
		C2.6,0,0,2.6,0,5.9v69.4c0,3.3,2.6,5.9,5.9,5.9h34.2c3.3,0,5.9-2.7,5.9-5.9V45.2c0.2-0.2,0.5-0.3,0.8-0.3c0.1,0,0.3,0,0.4,0.1l0,0
		c0.1,0,0.2,0.1,0.3,0.2c0,0,0,0,0,0c1.3,0.8,1.6,2.4,1.6,3.7v18.2c0,4.3,3.2,7.6,7.4,7.6c4.1,0,7.4-3.4,7.4-7.6V27.5v-2.7
		C63.9,24.6,63.9,24.5,63.9,24.4z M18.3,4.7h0.5h3.6h1.3h0.1h0.7h2.9v0c1,0,1.9,0.8,1.9,1.9c0,0.9-0.7,1.7-1.6,1.8h-0.5h-2.7h-0.7
		h-0.1h-1.3h-3.9v0c-1,0-1.9-0.8-1.9-1.9C16.7,5.6,17.4,4.8,18.3,4.7z M23,78.1c-2.1,0-3.8-1.7-3.8-3.8c0-2.1,1.7-3.8,3.8-3.8
		c2.1,0,3.8,1.7,3.8,3.8C26.8,76.4,25.1,78.1,23,78.1z M39.7,65c0,0.1,0,0.2,0,0.3c-0.2,1.6-1.5,2.9-3.2,2.9v0H9.6v0
		c-1.8,0-3.2-1.4-3.2-3.2h0V16.2h0c0-1.6,1.1-2.9,2.6-3.2c0.2,0,0.4,0,0.5,0c0.2,0,0.4,0,0.5,0h25.8c0.2,0,0.4,0,0.5,0
		c0.2,0,0.4,0,0.5,0c1.4,0.2,2.5,1.4,2.6,2.8c0,0.1,0,0.2,0,0.3s0,0.2,0,0.3v48.1C39.7,64.8,39.7,64.9,39.7,65z M58.8,28.5v38.6
		c0,1.2-0.8,2.5-2.2,2.5c-1.5,0-2.2-1.2-2.2-2.5V48.9c0-5.1-3-8.7-7.5-9.3h0c-0.1,0-0.2,0-0.3,0c-0.2,0-0.4-0.1-0.5-0.3v-29
		c0.2,0.1,0.5,0.1,0.7,0.1c0,0,0.1,0,0.1,0c0,0,0.1,0,0.1,0v0c1.2,0.1,2.3,0.4,3.4,0.8c0.1,0,0.3,0.1,0.4,0.1c0,0,0,0,0,0
		c0.9,0.4,1.4,1.3,1.4,2.3c0,0.1,0,0.2,0,0.3c0,0.2-0.1,0.3-0.1,0.5L51,19.2c-0.6,2.8,1.1,5.5,3.8,6.2l1.9,0.4c0,0,0.1,0,0.1,0
		c1.1,0.3,1.9,1.2,1.9,2.3c0,0.1,0,0.1,0,0.2C58.8,28.4,58.8,28.4,58.8,28.5z"/>
</g>
</svg>
